<?xml version="1.0" encoding="utf-8"?>
<!-- Generator: Adobe Illustrator 27.9.0, SVG Export Plug-In . SVG Version: 6.00 Build 0)  -->
<svg version="1.1" id="Calque_1" xmlns="http://www.w3.org/2000/svg" xmlns:xlink="http://www.w3.org/1999/xlink" x="0px" y="0px"
	 viewBox="0 0 1342 836" style="enable-background:new 0 0 1342 836;" xml:space="preserve">
<style type="text/css">
	.st0{fill-rule:evenodd;clip-rule:evenodd;fill:#E7B2A3;}
	.st1{fill-rule:evenodd;clip-rule:evenodd;fill:#ECA798;}
	.st2{fill-rule:evenodd;clip-rule:evenodd;fill:#E0A699;}
	.st3{fill-rule:evenodd;clip-rule:evenodd;fill:#EFA392;}
	.st4{fill-rule:evenodd;clip-rule:evenodd;fill:#EEA091;}
	.st5{fill-rule:evenodd;clip-rule:evenodd;fill:#E1A69F;}
	.st6{fill-rule:evenodd;clip-rule:evenodd;fill:#F0988B;}
	.st7{fill-rule:evenodd;clip-rule:evenodd;fill:#EC9389;}
	.st8{fill-rule:evenodd;clip-rule:evenodd;fill:#EC9A8F;}
	.st9{fill-rule:evenodd;clip-rule:evenodd;fill:#EB978D;}
	.st10{fill-rule:evenodd;clip-rule:evenodd;fill:#E0AEA4;}
	.st11{fill-rule:evenodd;clip-rule:evenodd;fill:#DBA096;}
	.st12{fill-rule:evenodd;clip-rule:evenodd;fill:#E49C93;}
	.st13{fill-rule:evenodd;clip-rule:evenodd;fill:#EC9187;}
	.st14{fill-rule:evenodd;clip-rule:evenodd;fill:#DF9A93;}
	.st15{fill-rule:evenodd;clip-rule:evenodd;fill:#EA8F86;}
	.st16{fill-rule:evenodd;clip-rule:evenodd;fill:#ED867F;}
	.st17{fill-rule:evenodd;clip-rule:evenodd;fill:#EA8782;}
	.st18{fill-rule:evenodd;clip-rule:evenodd;fill:#E88883;}
	.st19{fill-rule:evenodd;clip-rule:evenodd;fill:#EA8E87;}
	.st20{fill-rule:evenodd;clip-rule:evenodd;fill:#DA8A88;}
	.st21{fill-rule:evenodd;clip-rule:evenodd;fill:#EB827E;}
	.st22{fill-rule:evenodd;clip-rule:evenodd;fill:#E08D87;}
	.st23{fill-rule:evenodd;clip-rule:evenodd;fill:#DC9590;}
	.st24{fill-rule:evenodd;clip-rule:evenodd;fill:#EC817C;}
	.st25{fill-rule:evenodd;clip-rule:evenodd;fill:#EB7B78;}
	.st26{fill-rule:evenodd;clip-rule:evenodd;fill:#DC8C8A;}
	.st27{fill-rule:evenodd;clip-rule:evenodd;fill:#DB9693;}
	.st28{fill-rule:evenodd;clip-rule:evenodd;fill:#DA8D8A;}
	.st29{fill-rule:evenodd;clip-rule:evenodd;fill:#EA827E;}
	.st30{fill-rule:evenodd;clip-rule:evenodd;fill:#E77D7B;}
	.st31{fill-rule:evenodd;clip-rule:evenodd;fill:#D48887;}
	.st32{fill-rule:evenodd;clip-rule:evenodd;fill:#ED7573;}
	.st33{fill-rule:evenodd;clip-rule:evenodd;fill:#D58383;}
	.st34{fill-rule:evenodd;clip-rule:evenodd;fill:#E87775;}
	.st35{fill-rule:evenodd;clip-rule:evenodd;fill:#EB7374;}
	.st36{fill-rule:evenodd;clip-rule:evenodd;fill:#E67072;}
	.st37{fill-rule:evenodd;clip-rule:evenodd;fill:#E77274;}
	.st38{fill-rule:evenodd;clip-rule:evenodd;fill:#D98485;}
	.st39{fill-rule:evenodd;clip-rule:evenodd;fill:#D58C8C;}
	.st40{fill-rule:evenodd;clip-rule:evenodd;fill:#D68586;}
	.st41{fill-rule:evenodd;clip-rule:evenodd;fill:#D97D7F;}
	.st42{fill-rule:evenodd;clip-rule:evenodd;fill:#E87072;}
	.st43{fill-rule:evenodd;clip-rule:evenodd;fill:#DB7477;}
	.st44{fill-rule:evenodd;clip-rule:evenodd;fill:#E97576;}
	.st45{fill-rule:evenodd;clip-rule:evenodd;fill:#DB7D7D;}
	.st46{fill-rule:evenodd;clip-rule:evenodd;fill:#E46E71;}
	.st47{fill-rule:evenodd;clip-rule:evenodd;fill:#E96A6F;}
	.st48{fill-rule:evenodd;clip-rule:evenodd;fill:#EB686C;}
	.st49{fill-rule:evenodd;clip-rule:evenodd;fill:#D48D8A;}
	.st50{fill-rule:evenodd;clip-rule:evenodd;fill:#D17B7C;}
	.st51{fill-rule:evenodd;clip-rule:evenodd;fill:#D2888B;}
	.st52{fill-rule:evenodd;clip-rule:evenodd;fill:#E76A6E;}
	.st53{fill-rule:evenodd;clip-rule:evenodd;fill:#D87176;}
	.st54{fill-rule:evenodd;clip-rule:evenodd;fill:#EC6269;}
	.st55{fill-rule:evenodd;clip-rule:evenodd;fill:#E8646A;}
	.st56{fill-rule:evenodd;clip-rule:evenodd;fill:#D9777B;}
	.st57{fill-rule:evenodd;clip-rule:evenodd;fill:#CF7477;}
	.st58{fill-rule:evenodd;clip-rule:evenodd;fill:#E56068;}
	.st59{fill-rule:evenodd;clip-rule:evenodd;fill:#D26D76;}
	.st60{fill-rule:evenodd;clip-rule:evenodd;fill:#EA5661;}
	.st61{fill-rule:evenodd;clip-rule:evenodd;fill:#EA5A63;}
	.st62{fill-rule:evenodd;clip-rule:evenodd;fill:#D17172;}
	.st63{fill-rule:evenodd;clip-rule:evenodd;fill:#DC7A80;}
	.st64{fill-rule:evenodd;clip-rule:evenodd;fill:#E45861;}
	.st65{fill-rule:evenodd;clip-rule:evenodd;fill:#D8606A;}
	.st66{fill-rule:evenodd;clip-rule:evenodd;fill:#D4646B;}
	.st67{fill-rule:evenodd;clip-rule:evenodd;fill:#E75660;}
	.st68{fill-rule:evenodd;clip-rule:evenodd;fill:#E05965;}
	.st69{fill-rule:evenodd;clip-rule:evenodd;fill:#DB616A;}
	.st70{fill-rule:evenodd;clip-rule:evenodd;fill:#D68086;}
	.st71{fill-rule:evenodd;clip-rule:evenodd;fill:#CA6B74;}
	.st72{fill-rule:evenodd;clip-rule:evenodd;fill:#D8747C;}
	.st73{fill-rule:evenodd;clip-rule:evenodd;fill:#D06570;}
	.st74{fill-rule:evenodd;clip-rule:evenodd;fill:#E8555F;}
	.st75{fill-rule:evenodd;clip-rule:evenodd;fill:#C86167;}
	.st76{fill-rule:evenodd;clip-rule:evenodd;fill:#D25F69;}
	.st77{fill-rule:evenodd;clip-rule:evenodd;fill:#CE606D;}
	.st78{fill-rule:evenodd;clip-rule:evenodd;fill:#D7636C;}
	.st79{fill-rule:evenodd;clip-rule:evenodd;fill:#E94D5A;}
	.st80{fill-rule:evenodd;clip-rule:evenodd;fill:#D75761;}
	.st81{fill-rule:evenodd;clip-rule:evenodd;fill:#D6545E;}
	.st82{fill-rule:evenodd;clip-rule:evenodd;fill:#E94757;}
	.st83{fill-rule:evenodd;clip-rule:evenodd;fill:#D05A67;}
	.st84{fill-rule:evenodd;clip-rule:evenodd;fill:#C95D65;}
	.st85{fill-rule:evenodd;clip-rule:evenodd;fill:#C95F65;}
	.st86{fill-rule:evenodd;clip-rule:evenodd;fill:#EAB09D;}
	.st87{fill-rule:evenodd;clip-rule:evenodd;fill:#F1A794;}
	.st88{fill-rule:evenodd;clip-rule:evenodd;fill:#EDAC98;}
	.st89{fill-rule:evenodd;clip-rule:evenodd;fill:#EEA396;}
	.st90{fill-rule:evenodd;clip-rule:evenodd;fill:#F19A8B;}
	.st91{fill-rule:evenodd;clip-rule:evenodd;fill:#E19C97;}
	.st92{fill-rule:evenodd;clip-rule:evenodd;fill:#E1948F;}
	.st93{fill-rule:evenodd;clip-rule:evenodd;fill:#EC8D85;}
	.st94{fill-rule:evenodd;clip-rule:evenodd;fill:#E2958E;}
	.st95{fill-rule:evenodd;clip-rule:evenodd;fill:#E5918A;}
	.st96{fill-rule:evenodd;clip-rule:evenodd;fill:#DC9994;}
	.st97{fill-rule:evenodd;clip-rule:evenodd;fill:#E98A84;}
	.st98{fill-rule:evenodd;clip-rule:evenodd;fill:#DA9590;}
	.st99{fill-rule:evenodd;clip-rule:evenodd;fill:#EA8783;}
	.st100{fill-rule:evenodd;clip-rule:evenodd;fill:#EB8982;}
	.st101{fill-rule:evenodd;clip-rule:evenodd;fill:#EB817C;}
	.st102{fill-rule:evenodd;clip-rule:evenodd;fill:#DE9B94;}
	.st103{fill-rule:evenodd;clip-rule:evenodd;fill:#ED837E;}
	.st104{fill-rule:evenodd;clip-rule:evenodd;fill:#EB8781;}
	.st105{fill-rule:evenodd;clip-rule:evenodd;fill:#EB8480;}
	.st106{fill-rule:evenodd;clip-rule:evenodd;fill:#EE7F7C;}
	.st107{fill-rule:evenodd;clip-rule:evenodd;fill:#ED817D;}
	.st108{fill-rule:evenodd;clip-rule:evenodd;fill:#DD8D8C;}
	.st109{fill-rule:evenodd;clip-rule:evenodd;fill:#DD9492;}
	.st110{fill-rule:evenodd;clip-rule:evenodd;fill:#EEB0B0;}
	.st111{fill-rule:evenodd;clip-rule:evenodd;fill:#E98681;}
	.st112{fill-rule:evenodd;clip-rule:evenodd;fill:#DB908D;}
	.st113{fill-rule:evenodd;clip-rule:evenodd;fill:#E18885;}
	.st114{fill-rule:evenodd;clip-rule:evenodd;fill:#D8918A;}
	.st115{fill-rule:evenodd;clip-rule:evenodd;fill:#D48886;}
	.st116{fill-rule:evenodd;clip-rule:evenodd;fill:#EC7D7B;}
	.st117{fill-rule:evenodd;clip-rule:evenodd;fill:#C88B86;}
	.st118{fill-rule:evenodd;clip-rule:evenodd;fill:#EB7A78;}
	.st119{fill-rule:evenodd;clip-rule:evenodd;fill:#EE7774;}
	.st120{fill-rule:evenodd;clip-rule:evenodd;fill:#EA7C79;}
	.st121{fill-rule:evenodd;clip-rule:evenodd;fill:#E0A09D;}
	.st122{fill-rule:evenodd;clip-rule:evenodd;fill:#ED7A77;}
	.st123{fill-rule:evenodd;clip-rule:evenodd;fill:#EA7777;}
	.st124{fill-rule:evenodd;clip-rule:evenodd;fill:#D98E8F;}
	.st125{fill-rule:evenodd;clip-rule:evenodd;fill:#D48787;}
	.st126{fill-rule:evenodd;clip-rule:evenodd;fill:#D38987;}
	.st127{fill-rule:evenodd;clip-rule:evenodd;fill:#ED7976;}
	.st128{fill-rule:evenodd;clip-rule:evenodd;fill:#E17375;}
	.st129{fill-rule:evenodd;clip-rule:evenodd;fill:#DD9594;}
	.st130{fill-rule:evenodd;clip-rule:evenodd;fill:#EC7373;}
	.st131{fill-rule:evenodd;clip-rule:evenodd;fill:#EA696D;}
	.st132{fill-rule:evenodd;clip-rule:evenodd;fill:#EC7071;}
	.st133{fill-rule:evenodd;clip-rule:evenodd;fill:#EB6D6F;}
	.st134{fill-rule:evenodd;clip-rule:evenodd;fill:#EC7171;}
	.st135{fill-rule:evenodd;clip-rule:evenodd;fill:#ED7070;}
	.st136{fill-rule:evenodd;clip-rule:evenodd;fill:#ED7071;}
	.st137{fill-rule:evenodd;clip-rule:evenodd;fill:#E86A6F;}
	.st138{fill-rule:evenodd;clip-rule:evenodd;fill:#E87171;}
	.st139{fill-rule:evenodd;clip-rule:evenodd;fill:#EB6E6F;}
	.st140{fill-rule:evenodd;clip-rule:evenodd;fill:#DC8B8B;}
	.st141{fill-rule:evenodd;clip-rule:evenodd;fill:#DB7075;}
	.st142{fill-rule:evenodd;clip-rule:evenodd;fill:#DA8484;}
	.st143{fill-rule:evenodd;clip-rule:evenodd;fill:#DB7677;}
	.st144{fill-rule:evenodd;clip-rule:evenodd;fill:#E76C6E;}
	.st145{fill-rule:evenodd;clip-rule:evenodd;fill:#EC6168;}
	.st146{fill-rule:evenodd;clip-rule:evenodd;fill:#D67B7B;}
	.st147{fill-rule:evenodd;clip-rule:evenodd;fill:#E96369;}
	.st148{fill-rule:evenodd;clip-rule:evenodd;fill:#D77E7F;}
	.st149{fill-rule:evenodd;clip-rule:evenodd;fill:#F4ABB0;}
	.st150{fill-rule:evenodd;clip-rule:evenodd;fill:#ED6369;}
	.st151{fill-rule:evenodd;clip-rule:evenodd;fill:#EC6369;}
	.st152{fill-rule:evenodd;clip-rule:evenodd;fill:#EA646A;}
	.st153{fill-rule:evenodd;clip-rule:evenodd;fill:#EB6268;}
	.st154{fill-rule:evenodd;clip-rule:evenodd;fill:#DD686B;}
	.st155{fill-rule:evenodd;clip-rule:evenodd;fill:#EB666B;}
	.st156{fill-rule:evenodd;clip-rule:evenodd;fill:#E7666A;}
	.st157{fill-rule:evenodd;clip-rule:evenodd;fill:#EC6367;}
	.st158{fill-rule:evenodd;clip-rule:evenodd;fill:#E8A9AF;}
	.st159{fill-rule:evenodd;clip-rule:evenodd;fill:#C88586;}
	.st160{fill-rule:evenodd;clip-rule:evenodd;fill:#D8797D;}
	.st161{fill-rule:evenodd;clip-rule:evenodd;fill:#CB7277;}
	.st162{fill-rule:evenodd;clip-rule:evenodd;fill:#EB5C65;}
	.st163{fill-rule:evenodd;clip-rule:evenodd;fill:#EB5C64;}
	.st164{fill-rule:evenodd;clip-rule:evenodd;fill:#E85862;}
	.st165{fill-rule:evenodd;clip-rule:evenodd;fill:#EB5961;}
	.st166{fill-rule:evenodd;clip-rule:evenodd;fill:#D5777A;}
	.st167{fill-rule:evenodd;clip-rule:evenodd;fill:#E95D64;}
	.st168{fill-rule:evenodd;clip-rule:evenodd;fill:#D65761;}
	.st169{fill-rule:evenodd;clip-rule:evenodd;fill:#E95963;}
	.st170{fill-rule:evenodd;clip-rule:evenodd;fill:#DA676D;}
	.st171{fill-rule:evenodd;clip-rule:evenodd;fill:#E8535E;}
	.st172{fill-rule:evenodd;clip-rule:evenodd;fill:#EA5460;}
	.st173{fill-rule:evenodd;clip-rule:evenodd;fill:#E9515E;}
	.st174{fill-rule:evenodd;clip-rule:evenodd;fill:#E85761;}
	.st175{fill-rule:evenodd;clip-rule:evenodd;fill:#C96167;}
	.st176{fill-rule:evenodd;clip-rule:evenodd;fill:#D16069;}
	.st177{fill-rule:evenodd;clip-rule:evenodd;fill:#C6676F;}
	.st178{fill-rule:evenodd;clip-rule:evenodd;fill:#DB5561;}
	.st179{fill-rule:evenodd;clip-rule:evenodd;fill:#E94E5B;}
	.st180{fill-rule:evenodd;clip-rule:evenodd;fill:#EC8B99;}
	.st181{fill-rule:evenodd;clip-rule:evenodd;fill:#E54F5C;}
	.st182{fill-rule:evenodd;clip-rule:evenodd;fill:#E84E5C;}
	.st183{fill-rule:evenodd;clip-rule:evenodd;fill:#D05F6B;}
	.st184{fill-rule:evenodd;clip-rule:evenodd;fill:#D36B75;}
	.st185{fill-rule:evenodd;clip-rule:evenodd;fill:#E08C94;}
	.st186{fill-rule:evenodd;clip-rule:evenodd;fill:#ED8A93;}
	.st187{fill-rule:evenodd;clip-rule:evenodd;fill:#E84E5B;}
	.st188{fill-rule:evenodd;clip-rule:evenodd;fill:#E84355;}
	.st189{fill-rule:evenodd;clip-rule:evenodd;fill:#E94A59;}
	.st190{fill-rule:evenodd;clip-rule:evenodd;fill:#CC5F6A;}
	.st191{fill-rule:evenodd;clip-rule:evenodd;fill:#E94655;}
	.st192{fill-rule:evenodd;clip-rule:evenodd;fill:#BB646B;}
	.st193{fill-rule:evenodd;clip-rule:evenodd;fill:#E74B59;}
	.st194{fill-rule:evenodd;clip-rule:evenodd;fill:#CC5965;}
	.st195{fill-rule:evenodd;clip-rule:evenodd;fill:#CE5D68;}
	.st196{fill-rule:evenodd;clip-rule:evenodd;fill:#E94152;}
	.st197{fill-rule:evenodd;clip-rule:evenodd;fill:#E84253;}
	.st198{fill-rule:evenodd;clip-rule:evenodd;fill:#D75765;}
	.st199{fill-rule:evenodd;clip-rule:evenodd;fill:#EA4253;}
	.st200{fill-rule:evenodd;clip-rule:evenodd;fill:#D56C75;}
	.st201{fill-rule:evenodd;clip-rule:evenodd;fill:#EA3E51;}
	.st202{fill-rule:evenodd;clip-rule:evenodd;fill:#D64F5C;}
	.st203{fill-rule:evenodd;clip-rule:evenodd;fill:#EA4252;}
	.st204{fill-rule:evenodd;clip-rule:evenodd;fill:#E94051;}
	.st205{fill-rule:evenodd;clip-rule:evenodd;fill:#C65962;}
	.st206{fill-rule:evenodd;clip-rule:evenodd;fill:#EA4152;}
	.st207{fill-rule:evenodd;clip-rule:evenodd;fill:#CA5260;}
	.st208{fill-rule:evenodd;clip-rule:evenodd;fill:#CD525E;}
	.st209{fill-rule:evenodd;clip-rule:evenodd;fill:#C75662;}
	.st210{fill-rule:evenodd;clip-rule:evenodd;fill:#D04856;}
	.st211{fill-rule:evenodd;clip-rule:evenodd;fill:#C55261;}
	.st212{fill-rule:evenodd;clip-rule:evenodd;fill:#BF4E59;}
	.st213{fill-rule:evenodd;clip-rule:evenodd;fill:#C54F5C;}
	.st214{fill-rule:evenodd;clip-rule:evenodd;fill:#CD5060;}
	.st215{fill-rule:evenodd;clip-rule:evenodd;fill:#CA505D;}
	.st216{fill-rule:evenodd;clip-rule:evenodd;fill:#E74151;}
	.st217{fill-rule:evenodd;clip-rule:evenodd;fill:#CD4E5E;}
	.st218{fill-rule:evenodd;clip-rule:evenodd;fill:#C95F69;}
</style>
<path class="st0" d="M753.2,44c8.3,4.2,16.6,8.3,25,12.5c-7.3-0.3-13.9-2.6-19.6-7.1c-4.3,4-9.1,4.6-14.3,1.8
	c-10.6-10-23.4-15.3-38.3-16c-23.4-1.7-46.9-2.3-70.4-1.8c3.2-1.4,6.8-2.3,10.7-2.7c16.6-1.2,33.3-1.2,49.9,0
	C715.4,34.2,734.4,38.6,753.2,44z"/>
<path class="st1" d="M626.6,33.3c3,0,5.9,0,8.9,0c23.5-0.5,47,0.1,70.4,1.8c15,0.7,27.7,6.1,38.3,16c-7.6,3.8-7,5.9,1.8,6.2
	c-4.6,2.9-4.3,5.6,0.9,8c0.3,13.4,1.2,26.5,2.7,39.2c0,2.4,0,4.8,0,7.1c-1.4-1.4-2.3-3.1-2.7-5.3c-1.9-13.6-2.8-27.3-2.7-41
	c-13.8-3.3-27.4-6.3-41-8.9c-0.3,23.2,0.3,46.4,1.8,69.5c-1.1-0.2-2-0.8-2.7-1.8c-0.9-21.4-1.2-42.8-0.9-64.2
	c-0.4-5.6-1.9-11-4.5-16c-2.9-2-5.8-2-8.9,0c-3.9-1.8-6-4.8-6.2-8.9c-7.7-0.3-15.5,0-23.2,0.9c2,1.8,1.4,3-1.8,3.6
	c-2.3,1.2-4.4,0.9-6.2-0.9c-2.1,1.7-4.5,2.8-7.1,3.6c-7.6-1.2-15.7-1.5-24.1-0.9c-3,5.3-7.8,7.7-14.3,7.1c3.8,1.3,4.1,2.8,0.9,4.5
	c-4.8-1.9-9-0.7-12.5,3.6c-2.7-1.3-5.1-3.1-7.1-5.3c-5.4,2-11.1,3.2-16.9,3.6c4.4-3.1,9.1-5.8,14.3-8
	C597.9,41.2,612.2,36.8,626.6,33.3z"/>
<path class="st2" d="M680.1,52.9c-13.6-0.8-27,0.4-40.1,3.6c-0.9,27.3-1.2,54.7-0.9,82c-1.8-12.7-2.4-25.8-1.8-39.2
	c-0.3-15.5,0-30.9,0.9-46.3c4.8-1.5,9.6-3.3,14.3-5.3c7.6,2.3,15.4,2.3,23.2,0C678,48.7,679.4,50.5,680.1,52.9z"/>
<path class="st3" d="M701.5,60.1c-2.3-1-3.8-2.8-4.5-5.3c-1.3,2.6-3.3,3.8-6.2,3.6c3,5.9,1.2,9.5-5.3,10.7
	c-1.3,14.8-2.5,29.7-3.6,44.6c-1.8-19.9-2.4-40.1-1.8-60.6c-0.6-2.4-2.1-4.2-4.5-5.3c-7.8,2.3-15.5,2.3-23.2,0
	c-4.7,2.1-9.4,3.8-14.3,5.3c-0.9,15.4-1.2,30.9-0.9,46.3c-1.8,0.2-3.3-0.4-4.5-1.8c-0.6-8.3-1.2-16.6-1.8-25
	c-0.6-0.6-1.2-1.2-1.8-1.8c-0.9,5.9-1.2,11.9-0.9,17.8c-5.2-0.2-8.1,2.2-8.9,7.1c0-12.5,0-25,0-37.4c-5.5-0.3-10.9,0.6-16,2.7
	c-9.4,4.1-19,8.3-28.5,12.5c-1.7,4.8-2.3,9.9-1.8,15.2c-6.3-2-12.6-2-18.7,0c-0.9-0.9-1.8-1.8-2.7-2.7c4.5-4,9.8-6.1,16-6.2
	c0-2.4,0-4.8,0-7.1c-3.6-0.9-7.2-1.2-10.7-0.9c-2.2,2.7-4.9,4.8-8,6.2c-0.9,2.3-1.2,4.7-0.9,7.1c-3,0.8-5.7,0.8-8,0
	c-3.2,4.5-6.5,4.5-9.8,0c2.4-4,5.9-6.4,10.7-7.1c1.6-1.5,2.2-3.3,1.8-5.3c3.2,0,6.2-0.9,8.9-2.7c6-5.2,11.9-10.3,17.8-15.2
	c5.9-0.4,11.5-1.6,16.9-3.6c2.1,2.2,4.4,4,7.1,5.3c3.5-4.2,7.7-5.4,12.5-3.6c3.2-1.6,2.9-3.1-0.9-4.5c6.5,0.6,11.2-1.8,14.3-7.1
	c8.4-0.6,16.4-0.3,24.1,0.9c2.6-0.7,5-1.9,7.1-3.6c1.9,1.8,4,2.1,6.2,0.9c3.2-0.6,3.8-1.8,1.8-3.6c7.7-0.9,15.4-1.2,23.2-0.9
	c0.3,4.1,2.4,7.1,6.2,8.9c3.1-2,6.1-2,8.9,0C699.6,49.1,701,54.5,701.5,60.1z"/>
<path class="st4" d="M778.1,56.5c8.3,5.3,16.6,10.7,25,16c4.6,5.3,9.4,10.7,14.3,16c-0.7,4.1-2.8,4.6-6.2,1.8
	c-3.8,1.7-7.6,3.2-11.6,4.5c2.5,4,6.1,6.1,10.7,6.2c0,1.8,0,3.6,0,5.3c-8.8-6.8-17.7-13.6-26.7-20.5c-4.5-1.7-8.6-3.8-12.5-6.2
	c-1.2-2.3-2.7-2.3-4.5,0c-1.1,7.8-0.8,15.5,0.9,23.2c-1.3-0.7-2.2-1.9-2.7-3.6c-2.5,6.2-5.2,6.5-8,0.9c1.8-3,3.6-5.9,5.3-8.9
	c-3-3.9-4.5-7.7-4.5-11.6c-1.3,7.9-3,15.6-5.3,23.2c-0.7,1-1.6,1.6-2.7,1.8c-1.5-12.8-2.4-25.8-2.7-39.2c-5.2-2.4-5.5-5.1-0.9-8
	c-8.8-0.3-9.4-2.4-1.8-6.2c5.2,2.9,10,2.3,14.3-1.8C764.3,53.9,770.8,56.3,778.1,56.5z"/>
<path class="st5" d="M803.1,72.6c10.2,7.4,19.8,15.7,28.5,25c-4.7-2.8-9.4-5.8-14.3-8.9C812.4,83.2,807.7,77.9,803.1,72.6z"/>
<path class="st6" d="M573.1,88.6c-0.3,27.9,0,55.9,0.9,83.8c0.7,1,1.6,1.6,2.7,1.8c1.4,2.7,2,5.7,1.8,8.9c-1.4-1.4-2.3-3.1-2.7-5.3
	c-1.2,7.1-2.4,7.1-3.6,0c-0.5-10.7-1.4-21.4-2.7-32.1c-1-3.8-2.5-7.3-4.5-10.7c-2.5,7.3-4.9,7.9-7.1,1.8c-1,6.5-1.9,13.1-2.7,19.6
	c-1.2-9.5-1.8-19.3-1.8-29.4c0.1-10.9,1.3-21.6,3.6-32.1c-4.8-6.2-10.7-7.7-17.8-4.5c-3.2,10.1-9.4,17.8-18.7,23.2
	c-3.5-3.5-6.2-7.7-8-12.5c5.9-5.3,11.8-10.6,17.8-16c3.3,4.5,6.6,4.5,9.8,0c2.3,0.8,5,0.8,8,0c-0.3-2.4,0-4.8,0.9-7.1
	c3.2-1.4,5.8-3.5,8-6.2c3.5-0.3,7.1,0,10.7,0.9c0,2.4,0,4.8,0,7.1c-6.2,0.2-11.6,2.2-16,6.2c0.9,0.9,1.8,1.8,2.7,2.7
	C560.5,86.6,566.8,86.6,573.1,88.6z"/>
<path class="st7" d="M637.3,99.3c-0.6,13.4,0,26.5,1.8,39.2c1,4.4,2.2,8.5,3.6,12.5c0,4.3,0.9,8.5,2.7,12.5
	c4.9,11.7,11.2,22.4,18.7,32.1c-6.3-3-10.7-7.8-13.4-14.3c-0.5,2.8-1.7,5.1-3.6,7.1c-0.5-4.8-0.5-9.6,0-14.3c-2.7-0.6-5.1-0.6-7.1,0
	c-1-4.8-1.9-9.5-2.7-14.3c-1.8,0-3.6,0-5.3,0c-0.8,5.9,0.4,11.2,3.6,16c-4.9,4.1-4.6,7.7,0.9,10.7c1.2,4.1,2.1,8.3,2.7,12.5
	c-6.5-6.4-10.6-14.1-12.5-23.2c-1.7-7.9-3.8-15.6-6.2-23.2c-0.9-19-1.2-38-0.9-57c0.8-4.9,3.7-7.3,8.9-7.1c-0.3-6,0-11.9,0.9-17.8
	c0.6,0.6,1.2,1.2,1.8,1.8c0.6,8.3,1.2,16.6,1.8,25C634,98.9,635.5,99.5,637.3,99.3z"/>
<path class="st8" d="M701.5,60.1c-0.3,21.4,0,42.8,0.9,64.2c0.7,1,1.6,1.6,2.7,1.8c3.2,11.9,8,23.1,14.3,33.9
	c-3.7-3.1-6.9-6.7-9.8-10.7c-0.8-5.5-3.2-10.3-7.1-14.3c-0.9-2.9-1.2-5.9-0.9-8.9c-1.8,0-3.6,0-5.3,0c-0.7-9.1-2.5-18-5.3-26.7
	c-1.2,11.1-2.4,22.1-3.6,33c4.4,2.6,7.4,6.5,8.9,11.6c-1.9,4-2.2,8.2-0.9,12.5c3.9,5.4,6.6,11.3,8,17.8
	c-8.9-11.3-15.4-23.8-19.6-37.4c-1.4-7.6-2-15.4-1.8-23.2c1-14.9,2.2-29.7,3.6-44.6c6.6-1.2,8.4-4.8,5.3-10.7c2.9,0.2,5-0.9,6.2-3.6
	C697.7,57.3,699.2,59.1,701.5,60.1z"/>
<path class="st9" d="M817.3,88.6c4.8,3.1,9.6,6.1,14.3,8.9c25.6,24.4,43.4,53.5,53.5,87.4c-4-1.5-8.1-2.1-12.5-1.8
	c2.5-4.9,3.7-10.3,3.6-16c-2.4,0.3-4.4-0.3-6.2-1.8c-0.5-8.2-4.3-13.8-11.6-16.9c-5-8-8-16.6-8.9-25.8c-2.4-0.3-4.8,0-7.1,0.9
	c1.7,2,1.1,3.8-1.8,5.3c1.7,0.9,3.5,1.2,5.3,0.9c1.8,8.2,5.4,15.6,10.7,22.3c-0.9,1.7-2.1,3.2-3.6,4.5c5,12.2,9.2,24.7,12.5,37.4
	c-6.1-15.9-13.5-31.4-22.3-46.3c-10.2-14.6-21.2-28.3-33-41c0-1.8,0-3.6,0-5.3c-4.6-0.1-8.2-2.2-10.7-6.2c4-1.2,7.8-2.7,11.6-4.5
	C814.5,93.2,816.6,92.7,817.3,88.6z"/>
<path class="st10" d="M771,79.7c-1.2,3.2-1.8,6.8-1.8,10.7c0.8,8.4,2,16.7,3.6,25c-1.5-4.3-3.3-8.4-5.3-12.5
	c-1.7-7.7-2-15.4-0.9-23.2C768.3,77.4,769.8,77.4,771,79.7z"/>
<path class="st11" d="M619.5,95.7c-0.3,19,0,38,0.9,57c2.5,7.6,4.5,15.3,6.2,23.2c-6-10.8-9.3-22.7-9.8-35.7
	c-0.9-26.1-1.2-52.3-0.9-78.4c-13.7,3-26.7,7.7-39.2,14.3c-2.3,32.7-2.3,65.4,0,98c-1.1-0.2-2-0.8-2.7-1.8
	c-0.9-27.9-1.2-55.9-0.9-83.8c-0.5-5.3,0.1-10.3,1.8-15.2c9.6-4.2,19.1-8.3,28.5-12.5c5.2-2,10.5-2.9,16-2.7
	C619.5,70.8,619.5,83.3,619.5,95.7z"/>
<path class="st12" d="M569.5,54.7c-5.9,4.9-11.8,9.9-17.8,15.2c-2.7,1.8-5.7,2.7-8.9,2.7c0.4,2.1-0.2,3.9-1.8,5.3
	c-4.8,0.8-8.3,3.1-10.7,7.1c-6,5.4-12,10.8-17.8,16c1.8,4.8,4.5,9,8,12.5c9.3-5.4,15.5-13.1,18.7-23.2c7.1-3.3,13.1-1.8,17.8,4.5
	c-2.3,10.5-3.4,21.2-3.6,32.1c0,10.1,0.6,19.9,1.8,29.4c-0.3,5.4,0,10.7,0.9,16c1.7,10.4,4.4,20.5,8,30.3c-2.3-2.7-4.4-5.6-6.2-8.9
	c-2.6-8.7-4.4-17.7-5.3-26.7c-0.3-24.4-1.2-48.7-2.7-73.1c-13.9,10.7-26.7,22.6-38.3,35.7c-1.8,25.1-0.9,50.1,2.7,74.9
	c-0.6,0-1.2,0-1.8,0c-2.7-6.9-4.5-14-5.3-21.4c-0.3-17.2,0-34.5,0.9-51.7c0.9-2.7,1.8-5.3,2.7-8c-0.7-1.8-1.9-2.7-3.6-2.7
	c3.6-3.5,4.2-7.3,1.8-11.6c-6.4,2.8-12.1,7.3-16.9,13.4c-5.1,6.7-9.3,13.8-12.5,21.4c-2,2.9-4.7,4.7-8,5.3
	c9.9-18.2,21.8-34.8,35.7-49.9C525.5,81,546.3,66.1,569.5,54.7z"/>
<path class="st13" d="M507.2,183.1c-1.5-11.6-3.9-23.2-7.1-34.8c-2.7-2.4-5.7-4.5-8.9-6.2c-4,4.5-6.4,9.9-7.1,16
	c-2.4-2.6-5.4-3.8-8.9-3.6c-0.7,5.8-2.8,11.1-6.2,16c-0.6-1.8-1.2-3.6-1.8-5.3c-6.2,9.7-9.2,20.4-8.9,32.1c-0.6-3.8-2.1-4.4-4.5-1.8
	c0-0.6,0-1.2,0-1.8c3.9-15.8,9.8-30.7,17.8-44.6c3.3-0.6,6-2.4,8-5.3c3.2-7.6,7.4-14.7,12.5-21.4c4.8-6.1,10.5-10.6,16.9-13.4
	c2.4,4.2,1.8,8.1-1.8,11.6c1.7,0,2.9,0.9,3.6,2.7c-0.9,2.7-1.8,5.3-2.7,8C507.2,148.6,506.9,165.8,507.2,183.1z"/>
<path class="st14" d="M749.6,111.8c3.5,6,6.2,12.5,8,19.6c5.5,3.9,8.2,9.3,8,16c2.9,0.2,5-0.9,6.2-3.6c0.6,4.2,1.2,8.3,1.8,12.5
	c2.6,2.5,4,5.5,4.5,8.9C763,150.6,753.5,132.8,749.6,111.8z"/>
<path class="st15" d="M719.3,159.9c10.2,10.7,20.3,21.4,30.3,32.1c-5.3-3.8-11.3-6.5-17.8-8c-1.1-2.7-2.2-5.4-3.6-8
	c-5.2-2.4-10.6-4.4-16-6.2c-1-4-3-7.3-6.2-9.8c-3.7,4.5-2.9,8.1,2.7,10.7c1.2,4.2,2.4,8.3,3.6,12.5c1.8-2.7,4.2-3.6,7.1-2.7
	c3.5,1.6,5.2,4.3,5.3,8c-6.2,0.1-7.1,2.5-2.7,7.1c3.8,2,7.1,4.7,9.8,8c2.9,0.9,5.9,1.2,8.9,0.9c0,3.2,0.9,6.2,2.7,8.9
	c5.4,3.9,10.4,8.1,15.2,12.5c-1.9,0.3-3.7,0-5.3-0.9c-10.7-8.9-21.4-17.8-32.1-26.7c-7.1-7.3-13-15.4-17.8-24.1
	c-1.5-6.5-4.1-12.4-8-17.8c-1.3-4.3-1-8.4,0.9-12.5c-1.5-5.1-4.5-9-8.9-11.6c1.2-10.9,2.3-21.9,3.6-33c2.8,8.7,4.6,17.7,5.3,26.7
	c1.8,0,3.6,0,5.3,0c-0.3,3,0,6,0.9,8.9c4,4,6.3,8.7,7.1,14.3C712.4,153.2,715.6,156.8,719.3,159.9z"/>
<path class="st16" d="M507.2,183.1c0.9,7.3,2.6,14.5,5.3,21.4c-1.2,2.2-2.4,4.5-3.6,7.1c-0.6-0.9-1.2-1.8-1.8-2.7
	c-0.6-4.8-0.6-9.8,0-15.2c-2.4-0.3-4.4,0.3-6.2,1.8c-0.5,7.2-1.4,14.3-2.7,21.4c-2.5-0.8-3.6-2.6-3.6-5.3c4.5-6.7,4.2-13.3-0.9-19.6
	c-0.6,3-1.2,5.9-1.8,8.9c-0.6-7.7-1.2-15.5-1.8-23.2c-0.5-1.6-1.4-2.8-2.7-3.6c-0.6-2.2-1.4-2.2-2.7,0c-1.3,3.2-2.8,6.2-4.5,8.9
	c-10.9,18.7-15.6,39.2-14.3,61.5c0,5.4,0.6,10.4,1.8,15.2c1,4,3.4,7,7.1,8.9c1.8,2.4,3.6,4.8,5.3,7.1c-4.1-2.6-8.6-5-13.4-7.1
	c-4.5-15.4-6-30.8-4.5-46.3c-1.8,0-3.6,0-5.3,0c0.3,3,0,6-0.9,8.9c-3.6,2.3-6.3,5.3-8,8.9c2.5-13.4,4.3-27.1,5.3-41
	c0-1.2,0-2.4,0-3.6c2.4-2.6,3.8-2,4.5,1.8c-0.3-11.7,2.7-22.4,8.9-32.1c0.6,1.8,1.2,3.6,1.8,5.3c3.5-4.9,5.6-10.3,6.2-16
	c3.5-0.2,6.5,1,8.9,3.6c0.7-6.2,3.1-11.5,7.1-16c3.2,1.7,6.2,3.8,8.9,6.2C503.2,159.9,505.6,171.5,507.2,183.1z"/>
<path class="st17" d="M578.5,183.1c6.7,14.7,15.3,28.4,25.8,41c16.5,15.3,34,29.2,52.6,41.9c3.9,3.6,7.5,7.5,10.7,11.6
	c-4.2-0.9-8.4-2.1-12.5-3.6c-2.6-6.8-7.4-11-14.3-12.5c-6.1-3.4-11.4-7.9-16-13.4c-2.9-0.9-5.9-1.2-8.9-0.9c0.5-3.2-0.1-6.2-1.8-8.9
	c-6.1-5.6-12.3-10.9-18.7-16c-3-3-4.5-6.5-4.5-10.7c-2.4-0.3-4.8,0-7.1,0.9c-3.7,1.3-6.7,3.4-8.9,6.2c-3-3.6-5.9-7.1-8.9-10.7
	c-1.6-1.3-2.2-3-1.8-5.3c-3.6-9.9-6.3-20-8-30.3c-0.9-5.3-1.2-10.7-0.9-16c0.8-6.5,1.7-13.1,2.7-19.6c2.2,6.1,4.6,5.6,7.1-1.8
	c1.9,3.4,3.4,6.9,4.5,10.7c1.2,10.7,2.1,21.4,2.7,32.1c1.2,7.1,2.4,7.1,3.6,0C576.2,179.9,577.1,181.7,578.5,183.1z"/>
<path class="st18" d="M885.1,184.9c5,11.9,8.5,24.4,10.7,37.4c2.2,21.4,2.2,42.8,0,64.2c-1.8,7.1-3.6,14.3-5.3,21.4
	c0.3-21.2,1.5-41.5,3.6-60.6c-1.5-14.2-3-28.5-4.5-42.8c-1.5-2.8-2.7-5.8-3.6-8.9c-0.9,5.3-1.2,10.7-0.9,16c-2.9,0.2-5-0.9-6.2-3.6
	c-0.6-4.8-1.2-9.5-1.8-14.3c-2.8,5.6-4.6,11.6-5.3,17.8c-9.5-0.8-17-5.5-22.3-14.3c5.3,3.5,10.7,7.1,16,10.7c2-4.7,2-9.5,0-14.3
	c-3.3-12.8-7.4-25.3-12.5-37.4c1.4-1.3,2.6-2.8,3.6-4.5c-5.3-6.7-8.8-14.1-10.7-22.3c-1.9,0.3-3.7,0-5.3-0.9
	c2.9-1.5,3.5-3.3,1.8-5.3c2.3-0.9,4.7-1.2,7.1-0.9c0.9,9.3,3.9,17.9,8.9,25.8c7.3,3.1,11.1,8.8,11.6,16.9c1.8,1.5,3.9,2.1,6.2,1.8
	c0.2,5.8-1,11.1-3.6,16C877,182.7,881.1,183.3,885.1,184.9z"/>
<path class="st19" d="M767.4,102.9c2.1,4.1,3.8,8.2,5.3,12.5c5.1,9.6,10.8,19.1,16.9,28.5c18.5,19.4,38.4,37.2,59.7,53.5
	c-10-5.6-20.1-9.7-30.3-12.5c-3.7,2.7-5.5,6.2-5.3,10.7c4.2,0.3,8.4,0.9,12.5,1.8c0,2.4,0,4.8,0,7.1c4.3-0.4,8.5,0.2,12.5,1.8
	c2,2.3,2,4.7,0,7.1c2.6,3,5,6,7.1,8.9c-24.8-16.5-47.4-35.5-67.7-57c-0.4-3.4-1.9-6.4-4.5-8.9c-0.6-4.2-1.2-8.3-1.8-12.5
	c-1.3,2.6-3.3,3.8-6.2,3.6c0.1-6.8-2.5-12.1-8-16c-1.9-7.1-4.5-13.6-8-19.6c0-2.4,0-4.8,0-7.1c1.1-0.2,2-0.8,2.7-1.8
	c2.3-7.6,4.1-15.3,5.3-23.2c-0.1,3.9,1.4,7.7,4.5,11.6c-1.8,3-3.6,5.9-5.3,8.9c2.8,5.6,5.5,5.3,8-0.9
	C765.2,100.9,766.1,102.1,767.4,102.9z"/>
<path class="st20" d="M480.4,183.1c-7.9,24.9-12.1,50.5-12.5,76.7c-1.2-4.7-1.8-9.8-1.8-15.2C464.8,222.3,469.6,201.8,480.4,183.1z"
	/>
<path class="st21" d="M749.6,192c7.1,5.3,14.3,10.7,21.4,16c0.1,1.9,0.7,3.7,1.8,5.3c7.1,4.2,13.1,9.5,17.8,16
	c-4.1,2.9-7.6,6.4-10.7,10.7c2.9,2.9,6.5,5,10.7,6.2c-1.9,3.1-1.3,5.7,1.8,8c-12.4-8.3-23.7-17.8-33.9-28.5
	c-4.7-4.4-9.8-8.6-15.2-12.5c-1.8-2.7-2.7-5.7-2.7-8.9c-3,0.3-6,0-8.9-0.9c-2.8-3.3-6-6-9.8-8c-4.5-4.6-3.6-7,2.7-7.1
	c-0.1-3.7-1.9-6.4-5.3-8c-2.9-1-5.3-0.1-7.1,2.7c-1.2-4.2-2.4-8.3-3.6-12.5c-5.5-2.6-6.4-6.2-2.7-10.7c3.2,2.5,5.3,5.8,6.2,9.8
	c5.5,1.8,10.8,3.9,16,6.2c1.3,2.7,2.5,5.3,3.6,8C738.3,185.5,744.3,188.2,749.6,192z"/>
<path class="st22" d="M487.5,174.2c1.3,0.7,2.2,1.9,2.7,3.6c0.6,7.7,1.2,15.5,1.8,23.2c0.6-3,1.2-5.9,1.8-8.9
	c5.1,6.3,5.4,12.9,0.9,19.6c-0.1,2.7,1.1,4.5,3.6,5.3c0.9,4.1,1.5,8.3,1.8,12.5c-5-10.2-9.2-20.9-12.5-32.1
	C487.5,189.6,487.5,181.9,487.5,174.2z"/>
<path class="st23" d="M642.6,204.5c2.4,0,4.8,0,7.1,0c-0.3,2.4,0,4.8,0.9,7.1c4.7,5.3,10.1,10.1,16,14.3c0.8,1.1,1.1,2.2,0.9,3.6
	C657.5,222.9,649.2,214.6,642.6,204.5z"/>
<path class="st24" d="M849.4,197.3c5.3,8.7,12.8,13.5,22.3,14.3c0.8-6.3,2.5-12.2,5.3-17.8c0.6,4.8,1.2,9.5,1.8,14.3
	c1.3,2.6,3.3,3.8,6.2,3.6c-0.3-5.4,0-10.7,0.9-16c0.8,3.1,2,6.1,3.6,8.9c1.5,14.3,3,28.5,4.5,42.8c-3.6-8.2-7.5-16.5-11.6-25
	c-1.2,1.2-2.4,2.4-3.6,3.6c-0.6,19-1.2,38-1.8,57c-1.7,2.4-3.2,4.8-4.5,7.1c0.5-9.2,1.1-18.4,1.8-27.6c0.3-6.7-0.8-12.9-3.6-18.7
	c0.2-1.8-0.4-3.3-1.8-4.5c-4.6-3.7-9.3-7-14.3-9.8c-4-1-7-3.4-8.9-7.1c-2.2-2.9-4.5-5.9-7.1-8.9c2-2.5,2-4.9,0-7.1
	c-4-1.6-8.2-2.2-12.5-1.8c0-2.4,0-4.8,0-7.1c-4.1-0.9-8.3-1.5-12.5-1.8c-0.1-4.5,1.6-8,5.3-10.7
	C829.3,187.6,839.4,191.8,849.4,197.3z"/>
<path class="st25" d="M640.9,261.5c-2.8,4.7-5.7,4.7-8.9,0c-2.4,1.8-4.8,3.6-7.1,5.3c2.4,3,4.8,6,7.1,8.9
	c-9.4-5.2-17.7-11.7-25-19.6c-2.5-4.1-5.8-7.7-9.8-10.7c-0.9-1.7-1.2-3.5-0.9-5.3c-1.9,0.3-3.7,0-5.3-0.9
	c-6.8-5.4-12.2-12.2-16-20.5c2.2-2.8,5.2-4.9,8.9-6.2c2.3-0.9,4.7-1.2,7.1-0.9c0,4.2,1.5,7.7,4.5,10.7c6.4,5.1,12.6,10.5,18.7,16
	c1.7,2.8,2.3,5.7,1.8,8.9c3-0.3,6,0,8.9,0.9C629.4,253.7,634.8,258.1,640.9,261.5z"/>
<path class="st26" d="M771,208c10.7,9,21.4,17.9,32.1,26.7c-4.4-1.3-8.6-3.1-12.5-5.3c-4.8-6.5-10.7-11.9-17.8-16
	C771.7,211.8,771.1,210,771,208z"/>
<path class="st27" d="M854.8,229.4c4.9,2.8,9.7,6.1,14.3,9.8c1.3,1.2,1.9,2.7,1.8,4.5c-1.8-1.2-3.6-2.4-5.3-3.6
	C861.3,237.2,857.7,233.6,854.8,229.4z"/>
<path class="st28" d="M566,208c3,3.6,5.9,7.1,8.9,10.7c3.9,8.3,9.2,15.1,16,20.5c1.7,0.9,3.5,1.2,5.3,0.9c-0.3,1.9,0,3.7,0.9,5.3
	c4,3,7.3,6.6,9.8,10.7C588.7,243.9,575.1,227.8,566,208z"/>
<path class="st29" d="M664,195.6c25.6,21.4,51.1,42.8,76.7,64.2c-7.9-1.1-13.8-5-17.8-11.6c-4.8-1.2-9.5-2.4-14.3-3.6
	c-1.6-3-2.2-6.3-1.8-9.8c-3.5-0.4-6.8,0.2-9.8,1.8c-1.1,1.7-0.8,3.2,0.9,4.5c-2.2,1.6-4.6,3.1-7.1,4.5c1.2,1.8,2.4,3.6,3.6,5.3
	c-10-5.8-18.9-12.9-26.7-21.4c0.2-1.3-0.1-2.5-0.9-3.6c-6-4.2-11.3-8.9-16-14.3c-0.9-2.3-1.2-4.7-0.9-7.1c-2.4,0-4.8,0-7.1,0
	c-1.2-1.8-2.4-3.6-3.6-5.3c-0.6-4.2-1.5-8.4-2.7-12.5c-5.5-3-5.8-6.6-0.9-10.7c-3.2-4.8-4.3-10.1-3.6-16c1.8,0,3.6,0,5.3,0
	c0.8,4.8,1.7,9.5,2.7,14.3c2.1-0.6,4.5-0.6,7.1,0c-0.5,4.7-0.5,9.4,0,14.3c1.9-2,3-4.4,3.6-7.1C653.3,187.8,657.7,192.6,664,195.6z"
	/>
<path class="st30" d="M512.5,204.5c0.6,0,1.2,0,1.8,0c2.6,6.4,5.3,13,8,19.6c4.3,4.9,7.8,10.2,10.7,16c5.9,3.9,11,8.6,15.2,14.3
	c-5.3-3.8-11.2-5.6-17.8-5.3c0.3-2.4,0-4.8-0.9-7.1c-4,2.1-7.9,4.5-11.6,7.1c1.8,7.1,3.6,7.1,5.3,0c6.1,2.7,6.7,6.2,1.8,10.7
	c3,1.2,5.9,2.4,8.9,3.6c-4.1,2.7-3.5,5,1.8,7.1c1.2-0.6,2.4-1.2,3.6-1.8c1.1,4,3.5,7,7.1,8.9c0.4-1.3,1-2.8,1.8-4.5
	c10.9-0.2,11.5-2.2,1.8-6.2c1.4-2.8,2-5.8,1.8-8.9c14.8,11.3,29.1,23.1,42.8,35.7c-6.3-2.6-12.9-5-19.6-7.1
	c-1.3-2.2-1.9-4.6-1.8-7.1c-7.9-3.2-15-2-21.4,3.6c3.2,6.8,8.6,9.7,16,8.9c-0.5,2.6,0.1,5,1.8,7.1c4.2,3,7.8,6.6,10.7,10.7
	c-24.3-16.2-46.6-35.3-66.8-57c-5.6-7.1-10.1-14.8-13.4-23.2c-0.3-4.2-0.9-8.4-1.8-12.5c1.2-7,2.1-14.2,2.7-21.4
	c1.8-1.5,3.9-2.1,6.2-1.8c-0.6,5.3-0.6,10.4,0,15.2c0.6,0.9,1.2,1.8,1.8,2.7C510.1,209,511.3,206.6,512.5,204.5z"/>
<path class="st31" d="M694.3,250.8c13.5,8.4,26.2,17.9,38.3,28.5c0.8,1.1,1.1,2.2,0.9,3.6C720,272.9,706.9,262.2,694.3,250.8z"/>
<path class="st32" d="M548.2,254.4c0.6,1.8,1.8,3,3.6,3.6c0.3,3.1-0.3,6.1-1.8,8.9c9.7,4,9.1,6.1-1.8,6.2c-0.8,1.6-1.4,3.1-1.8,4.5
	c-3.6-2-6-4.9-7.1-8.9c-1.2,0.6-2.4,1.2-3.6,1.8c-5.3-2.1-5.9-4.5-1.8-7.1c-3-1.2-5.9-2.4-8.9-3.6c4.9-4.5,4.3-8-1.8-10.7
	c-1.8,7.1-3.6,7.1-5.3,0c3.7-2.7,7.6-5.1,11.6-7.1c0.9,2.3,1.2,4.7,0.9,7.1C537,248.8,542.9,250.6,548.2,254.4z"/>
<path class="st33" d="M792.4,254.4c5.8,3.1,10.8,7.2,15.2,12.5c0.6-0.6,1.2-1.2,1.8-1.8c2.5,6.9,6.4,12.8,11.6,17.8
	c1.7,2.8,2.3,5.7,1.8,8.9c-1.2-1.2-2.4-2.4-3.6-3.6c-2.2-4.9-4.9-9.7-8-14.3C804.5,267.7,798.3,261.2,792.4,254.4z"/>
<path class="st34" d="M740.7,259.7c11,7.6,19.9,17.1,26.7,28.5c-3-2.7-6.3-5.1-9.8-7.1c-0.7,0.8-1.6,1.4-2.7,1.8
	c-1.2-3.2-2.7-6.1-4.5-8.9c-3.1,1.3-6.4,2.2-9.8,2.7c-1.9,1.3-3.1,3.1-3.6,5.3c2.8,3.7,5.2,7.5,7.1,11.6c-4.2-3-7.7-6.5-10.7-10.7
	c0.2-1.3-0.1-2.5-0.9-3.6c-12.1-10.6-24.9-20.1-38.3-28.5c-1.1-1.8-2.3-3.5-3.6-5.3c2.5-1.3,4.9-2.8,7.1-4.5c-1.7-1.3-2-2.8-0.9-4.5
	c3-1.6,6.3-2.2,9.8-1.8c-0.4,3.5,0.2,6.8,1.8,9.8c4.8,1.2,9.5,2.4,14.3,3.6C726.9,254.8,732.8,258.6,740.7,259.7z"/>
<path class="st35" d="M894,247.3c-2.1,19.2-3.3,39.4-3.6,60.6c-1.4,12.8-5,24.7-10.7,35.7c1.4-7.4,2.6-14.8,3.6-22.3
	c-0.6-3.3-1.2-6.5-1.8-9.8c-1.3,1.6-2.2,3.3-2.7,5.3c-2.7-6.8-4.2-6.2-4.5,1.8c-2.4,0-4.8,0-7.1,0c-0.8,4.8-1.7,9.5-2.7,14.3
	c-1.2,1.3-2.7,1.9-4.5,1.8c3.3-15.1,7.5-29.9,12.5-44.6c1.3-2.3,2.8-4.7,4.5-7.1c0.6-19,1.2-38,1.8-57c1.2-1.2,2.4-2.4,3.6-3.6
	C886.5,230.7,890.3,239.1,894,247.3z"/>
<path class="st36" d="M594.5,293.6c21.4,13.4,38.9,30.6,52.6,51.7c2.7,5.9,4.8,11.8,6.2,17.8c-2.6-2-4.4-4.7-5.3-8
	c-2.3-0.6-4.3-1.4-6.2-2.7c-1.5-4.1-2.7-8.2-3.6-12.5c-3.9-1.3-7.8-3-11.6-5.3c2.9-6,1.2-9.6-5.3-10.7c0-1.8,0-3.6,0-5.3
	c-3.2,0-6.2-0.9-8.9-2.7c1.2-0.6,2.4-1.2,3.6-1.8c-2.6-2.8-5.6-5.2-8.9-7.1c-4.3,0.6-8.4,0.3-12.5-0.9c-1.4-2.8-2-5.8-1.8-8.9
	c-6.6-0.4-12.9-2.2-18.7-5.3c-1.2,1.5-0.9,2.7,0.9,3.6c3.2,2.6,6.8,4.4,10.7,5.3c0.4,2.9-0.2,5.6-1.8,8c3.4,0.8,5.2,2.8,5.3,6.2
	c-1.2,0-2.4,0-3.6,0c-2.4-1.2-4.2-3-5.3-5.3c-2.9-4.1-6.5-7.7-10.7-10.7c-1.7-2.1-2.2-4.5-1.8-7.1c-7.5,0.8-12.8-2.1-16-8.9
	c6.4-5.5,13.5-6.7,21.4-3.6c-0.1,2.5,0.5,4.9,1.8,7.1C581.6,288.6,588.2,291,594.5,293.6z"/>
<path class="st37" d="M480.4,275.8c1.4,5.8,4.9,9.6,10.7,11.6c-0.8,0.7-1.4,1.6-1.8,2.7c2.6,1.2,5,2.4,7.1,3.6c-3.4-0.4-6,0.8-8,3.6
	c-0.5-6.5-3.5-8.3-8.9-5.3c-0.6-2.3-1.4-4.3-2.7-6.2c0.6-0.6,1.2-1.2,1.8-1.8c-3.2-2.1-6.7-3.3-10.7-3.6c-2.5-3.5-5.2-6.8-8-9.8
	c-2.5,2-4.6,4.4-6.2,7.1c3.1,13,4,26.1,2.7,39.2c5.5-1.9,7-0.1,4.5,5.3c5.9,17.3,11.9,34.5,17.8,51.7
	c-10.1-14.8-17.8-30.8-23.2-48.1c-1.4-5.9-2.6-11.8-3.6-17.8c-3.1-22.3-4.3-44.8-3.6-67.7c1.7-3.6,4.4-6.6,8-8.9
	c0.9-2.9,1.2-5.9,0.9-8.9c1.8,0,3.6,0,5.3,0c-1.6,15.5-0.1,31,4.5,46.3C471.8,270.8,476.3,273.2,480.4,275.8z"/>
<path class="st38" d="M631.9,275.8c11,4.5,19.9,11.6,26.7,21.4C648.7,291.4,639.8,284.3,631.9,275.8z"/>
<path class="st39" d="M681.9,288.3c5.9,4.8,11.3,10.1,16,16C690.8,300.7,685.4,295.4,681.9,288.3z"/>
<path class="st40" d="M453.7,199.1c-1,13.9-2.8,27.6-5.3,41c-0.7,22.9,0.5,45.5,3.6,67.7c-2.7-5.4-4.2-11.4-4.5-17.8
	c-1.6-13-2.5-26.1-2.7-39.2C444.1,232.7,447.1,215.5,453.7,199.1z"/>
<path class="st41" d="M480.4,275.8c11.3,9.6,22.6,19.1,33.9,28.5c-5.2-0.7-9.4-3.1-12.5-7.1c-1.8-1.2-3.6-2.4-5.3-3.6
	c-2.2-1.2-4.5-2.4-7.1-3.6c0.4-1,1-1.9,1.8-2.7C485.3,285.4,481.8,281.5,480.4,275.8z"/>
<path class="st42" d="M640.9,261.5c6.9,1.5,11.6,5.7,14.3,12.5c4.1,1.5,8.3,2.7,12.5,3.6c5.2,2.8,10,6.4,14.3,10.7
	c3.6,7.1,8.9,12.5,16,16c10,10.7,17.2,23.1,21.4,37.4c-2.2-0.1-3.7-1.3-4.5-3.6c-0.6,0.6-1.2,1.2-1.8,1.8
	c-2.7-15.6-11.1-26.9-25-33.9c-1.4,0.3-2.6,0.9-3.6,1.8c-0.9,3.5-1.2,7.1-0.9,10.7c-3.1-4.8-7.2-8.4-12.5-10.7
	c-5.2-2.2-9.4-5.8-12.5-10.7c-6.8-9.8-15.7-16.9-26.7-21.4c-2.3-2.9-4.7-5.9-7.1-8.9c2.4-1.8,4.8-3.6,7.1-5.3
	C635.1,266.2,638.1,266.2,640.9,261.5z"/>
<path class="st43" d="M769.2,352.4c-0.6,0-1.2,0-1.8,0c-1.3-19.7-7.9-37.6-19.6-53.5c3.4,0.4,6-0.8,8-3.6c-2,9.1,1,16.2,8.9,21.4
	C767.9,328.4,769.4,340.3,769.2,352.4z"/>
<path class="st44" d="M790.6,229.4c3.9,2.2,8.1,4,12.5,5.3c3.2,3.4,5,7.6,5.3,12.5c5.9-1.2,9.5,1.2,10.7,7.1c6.7,2,9,6.2,7.1,12.5
	c2.1,1.7,4.5,2.2,7.1,1.8c0.2,4.6,2.3,8.2,6.2,10.7c0.3,5.4,1.2,10.8,2.7,16c6,10.8,10.1,22.1,12.5,33.9c1.4,2,2.3,4.4,2.7,7.1
	c0.7-1,1.6-1.6,2.7-1.8c0,1.8,0,3.6,0,5.3c-2.9,0-5.3-1.2-7.1-3.6c-3-17.4-7.8-34.1-14.3-49.9c-1.8,0-3.6,0-5.3,0c0-2.4,0-4.8,0-7.1
	c-8.7,0.9-10.8,5.1-6.2,12.5c1.2-3.9,3.3-4.5,6.2-1.8c-0.4,7.5,2,14.3,7.1,20.5c-0.9,0.9-1.8,1.8-2.7,2.7
	c-0.6,21.4-1.2,42.8-1.8,64.2c-0.5,1.6-1.4,2.8-2.7,3.6c-0.6,0-1.2,0-1.8,0c0-20.2,0-40.4,0-60.6c-1.8-6-3.6-12-5.3-17.8
	c-1.2-3.6-2.4-7.1-3.6-10.7c0.5-3.2-0.1-6.2-1.8-8.9c-5.2-5-9.1-11-11.6-17.8c-0.6,0.6-1.2,1.2-1.8,1.8c-4.3-5.3-9.4-9.4-15.2-12.5
	c-3.1-2.3-3.7-5-1.8-8c-4.2-1.3-7.7-3.3-10.7-6.2C783,235.9,786.5,232.3,790.6,229.4z"/>
<path class="st45" d="M803.1,234.8c27.5,20,44.8,46.7,51.7,80.2c0,4.8,0,9.5,0,14.3c-2.3-11.8-6.5-23-12.5-33.9
	c-1.5-5.3-2.4-10.6-2.7-16c-4-2.5-6.1-6-6.2-10.7c-2.6,0.5-5-0.1-7.1-1.8c1.9-6.3-0.5-10.4-7.1-12.5c-1.2-5.9-4.8-8.3-10.7-7.1
	C808,242.3,806.3,238.2,803.1,234.8z"/>
<path class="st46" d="M501.8,297.2c3.1,4,7.3,6.4,12.5,7.1c5.9,3.5,11.2,7.7,16,12.5c-10.3-3.7-16.3-0.1-17.8,10.7
	c5.6,2.2,9.2,6.3,10.7,12.5c-4.6-3.2-8.7-6.7-12.5-10.7c-6.1-8.1-13.8-14-23.2-17.8c-4.6-1.9-8.5-4.9-11.6-8.9
	c-0.5,5.4-0.2,10.7,0.9,16c-3.2-3.4-5.3-7.5-6.2-12.5c-1.3-2.9-1-5.5,0.9-8c4.2,1.2,8.3,0.9,12.5-0.9c3.6,2.9,7.5,5.2,11.6,7.1
	C499.3,303.3,501.3,300.9,501.8,297.2z"/>
<path class="st47" d="M626.6,334.6c-3.1-1.4-5.5-3.8-7.1-7.1c-0.6,2.1-1.2,4.2-1.8,6.2c3.4,8.8,6.9,17.4,10.7,25.8
	c-8.2-12.2-17.7-23.5-28.5-33.9c-3-4.2-6.6-7.8-10.7-10.7c-0.1-3.4-1.9-5.5-5.3-6.2c1.6-2.4,2.2-5.1,1.8-8
	c-3.9-0.9-7.5-2.7-10.7-5.3c-1.8-0.9-2.1-2.1-0.9-3.6c5.8,3.2,12.1,4.9,18.7,5.3c-0.3,3.1,0.3,6.1,1.8,8.9c4.1,1.2,8.2,1.5,12.5,0.9
	c3.3,1.9,6.3,4.3,8.9,7.1c-1.2,0.6-2.4,1.2-3.6,1.8c2.7,1.8,5.7,2.7,8.9,2.7c0,1.8,0,3.6,0,5.3C627.8,325.1,629.5,328.6,626.6,334.6
	z"/>
<path class="st48" d="M496.5,293.6c1.8,1.2,3.6,2.4,5.3,3.6c-0.5,3.7-2.5,6.1-6.2,7.1c-4.1-1.9-8-4.3-11.6-7.1
	c-4.2,1.8-8.3,2-12.5,0.9c-1.9,2.5-2.2,5.1-0.9,8c0.9,5,3,9.1,6.2,12.5c-0.3,4.8,0,9.5,0.9,14.3c3.3,6.6,6.6,13.2,9.8,19.6
	c-2.7,1.9-4.5,4.6-5.3,8c1.7,6.5,5,12.1,9.8,16.9c0.6,6.6,1.5,13.2,2.7,19.6c-6.7-6.8-12-14.5-16-23.2
	c-5.9-17.2-11.9-34.4-17.8-51.7c2.6-5.4,1.1-7.2-4.5-5.3c1.3-13.2,0.4-26.2-2.7-39.2c1.7-2.8,3.8-5.1,6.2-7.1c2.9,3,5.5,6.3,8,9.8
	c3.9,0.3,7.5,1.5,10.7,3.6c-0.6,0.6-1.2,1.2-1.8,1.8c1.2,1.9,2.1,4,2.7,6.2c5.5-2.9,8.4-1.1,8.9,5.3
	C490.4,294.4,493.1,293.2,496.5,293.6z"/>
<path class="st49" d="M585.6,315c1.2,0,2.4,0,3.6,0c4.1,2.9,7.7,6.5,10.7,10.7C594.6,322.8,589.8,319.2,585.6,315z"/>
<path class="st50" d="M671.2,307.9c5.3,2.3,9.4,5.9,12.5,10.7c3.3,4.2,5.7,9,7.1,14.3C684.3,324.5,677.7,316.2,671.2,307.9z"/>
<path class="st51" d="M487.5,311.4c9.3,3.8,17.1,9.7,23.2,17.8C502,324.6,494.3,318.7,487.5,311.4z"/>
<path class="st52" d="M767.4,288.3c10.4,12.4,16.9,26.7,19.6,42.8c-1.6-1.3-2.2-3-1.8-5.3c-3,0-5.9,0-8.9,0
	c-3.1,35.6-5.2,71.2-6.2,107c-0.7,2.6-2.2,4.4-4.5,5.3c3.4-28.3,4.5-56.9,3.6-85.6c0.2-12.1-1.3-24-4.5-35.7
	c-7.9-5.2-10.9-12.3-8.9-21.4c-2,2.7-4.7,3.9-8,3.6c-1.2-1.8-2.4-3.6-3.6-5.3c-2-4.1-4.3-7.9-7.1-11.6c0.5-2.2,1.7-4,3.6-5.3
	c3.4-0.4,6.7-1.3,9.8-2.7c1.7,2.8,3.2,5.8,4.5,8.9c1-0.4,1.9-1,2.7-1.8C761.2,283.2,764.4,285.6,767.4,288.3z"/>
<path class="st53" d="M476.9,318.6c6,15.9,13.4,31.4,22.3,46.3c9.6,13.2,20,25.7,31.2,37.4c-1.3,0.2-2.5-0.1-3.6-0.9
	c-8.8-7.9-16.5-16.5-23.2-25.8c-7.6-6.1-12.9-13.9-16-23.2c-3.2-6.4-6.5-13-9.8-19.6C476.9,328.1,476.6,323.4,476.9,318.6z"/>
<path class="st54" d="M860.1,334.6c1.8,0.2,3.3-0.4,4.5-1.8c1-4.8,1.9-9.5,2.7-14.3c2.4,0,4.8,0,7.1,0c0.3-8,1.8-8.6,4.5-1.8
	c0.4-2,1.3-3.8,2.7-5.3c0.6,3.3,1.2,6.5,1.8,9.8c-0.9,7.5-2.1,14.9-3.6,22.3c-1.9,0.1-3.7,0.7-5.3,1.8c-2.2,9.6-5.7,18.6-10.7,26.7
	c-0.6,0-1.2,0-1.8,0c-3.6-15.6-8.6-16.2-15.2-1.8c-1.8-5.9-3.6-11.9-5.3-17.8c-2.3,8.6-3.5,17.5-3.6,26.7c-0.4,2.9-1.9,4.7-4.5,5.3
	c0-1.2,0-2.4,0-3.6c1.3-0.7,2.2-1.9,2.7-3.6c0.6-21.4,1.2-42.8,1.8-64.2c0.9-0.9,1.8-1.8,2.7-2.7c-5.1-6.2-7.5-13-7.1-20.5
	c-3-2.7-5-2.1-6.2,1.8c-4.5-7.4-2.5-11.5,6.2-12.5c0,2.4,0,4.8,0,7.1c1.8,0,3.6,0,5.3,0c6.5,15.8,11.2,32.5,14.3,49.9
	c1.8,2.4,4.2,3.6,7.1,3.6C860.1,338.2,860.1,336.4,860.1,334.6z"/>
<path class="st55" d="M530.3,316.8c9.3,5.2,17.7,11.7,25,19.6c-0.5,2.6,0.1,5,1.8,7.1c3.6,2.6,7.2,5,10.7,7.1c1.2,3,2.4,5.9,3.6,8.9
	c-1.1-0.2-2-0.8-2.7-1.8c-0.4,2.6-1.3,4.9-2.7,7.1c-1.5-5.4-4.2-10.2-8-14.3c-2-2.7-4.7-3.9-8-3.6c1.2,4.2,2.4,8.3,3.6,12.5
	c1.8,0,3.6,0,5.3,0c0,3.6,0,7.1,0,10.7c-3.1-4.8-7.2-8.4-12.5-10.7c-3.7-7.8-9.6-13.1-17.8-16c-2.2-0.8-3.9-2-5.3-3.6
	c-1.5-6.2-5.1-10.3-10.7-12.5C514.1,316.6,520,313.1,530.3,316.8z"/>
<path class="st56" d="M555.3,336.4c5.4,3.7,9.6,8.4,12.5,14.3c-3.5-2.1-7.1-4.5-10.7-7.1C555.4,341.4,554.8,339,555.3,336.4z"/>
<path class="st57" d="M528.5,343.5c8.2,2.9,14.1,8.2,17.8,16C540.4,354.2,534.4,348.9,528.5,343.5z"/>
<path class="st58" d="M719.3,341.7c-0.1,10.3,1.1,20.4,3.6,30.3c-1.4,1.4-2.3,3.1-2.7,5.3c-1.8-10-3.3-20.1-4.5-30.3
	c-2,7.5-4.9,14.7-8.9,21.4c1.2,25.5,2.4,51.1,3.6,76.7c-0.5,4.4-2.2,8-5.3,10.7c0.3-30.3,0-60.6-0.9-90.9c-1.4-5.3-2.6-10.6-3.6-16
	c-0.7-1-1.6-1.6-2.7-1.8c-3.3-4.2-5.7-8.9-7.1-14.3c-1.4-5.3-3.8-10-7.1-14.3c-0.3-3.6,0-7.2,0.9-10.7c1-0.9,2.2-1.5,3.6-1.8
	c13.9,6.9,22.2,18.2,25,33.9c0.6-0.6,1.2-1.2,1.8-1.8C715.6,340.4,717.1,341.6,719.3,341.7z"/>
<path class="st59" d="M567.8,350.7c11.3,10.8,19.1,23.8,23.2,39.2c-6-10.1-12.5-20.3-19.6-30.3C570.1,356.6,569,353.6,567.8,350.7z"
	/>
<path class="st60" d="M861.9,372c-2.4-0.3-4.8,0-7.1,0.9c1.2,0.6,2.4,1.2,3.6,1.8c-0.9,7.6-5,12-12.5,13.4c0,3,0,5.9,0,8.9
	c-2.4,0-4.8,0-7.1,0c-0.2,4.3-1.9,7.9-5.3,10.7c-1.4,2.2-2.9,2.2-4.5,0c-0.9,3.5-1.2,7.1-0.9,10.7c-6-3.5-9-1.8-8.9,5.3
	c-1.8,0-3.6,0-5.3,0c-1,4.5-2.8,8.7-5.3,12.5c-9.8,8-20.5,14.5-32.1,19.6c0.6-4.3-1.1-7-5.3-8c8.4-1.9,16.7-4,25-6.2
	c-0.5-4.3,0-8.5,1.8-12.5c2.1,3.2,5.1,5,8.9,5.3c-1.2-4.5-3.6-8.3-7.1-11.6c2.4-1.5,3.5-3.5,3.6-6.2c3.1-6.4,7.8-11.4,14.3-15.2
	c2.2-0.6,4,0.3,5.3,2.7c2-7.4,5.6-13.9,10.7-19.6c2.6-0.7,4-2.5,4.5-5.3c0.1-9.2,1.3-18.1,3.6-26.7c1.8,5.9,3.6,11.9,5.3,17.8
	C853.3,355.8,858.3,356.4,861.9,372z"/>
<path class="st61" d="M787,331c1,29.2,2.2,58.3,3.6,87.4c0,0.6,0,1.2,0,1.8c-2.8-2.1-4.3-5.1-4.5-8.9c-0.3-7.2-1.2-14.3-2.7-21.4
	c-2.3,7.8-2.3,15.5,0,23.2c-0.9,0.6-1.8,1.2-2.7,1.8c-2.3-2.2-5-3.3-8-3.6c0.3,8.3,0,16.7-0.9,25c-2.7,4.3-6.6,6.1-11.6,5.3
	c1.8-1.2,3.6-2.4,5.3-3.6c2.3-1,3.8-2.8,4.5-5.3c1-35.7,3.1-71.4,6.2-107c3,0,5.9,0,8.9,0C784.8,328,785.4,329.8,787,331z"/>
<path class="st62" d="M879.7,343.5c-0.9,3.2-2.1,6.2-3.6,8.9c-2.3,8.2-6.5,15.3-12.5,21.4c0-0.6,0-1.2,0-1.8
	c5-8.2,8.5-17.1,10.7-26.7C876,344.2,877.8,343.6,879.7,343.5z"/>
<path class="st63" d="M787,331c1.2,2.4,2.4,4.8,3.6,7.1c1.5,26.7,2.1,53.5,1.8,80.2c-0.6,0-1.2,0-1.8,0
	C789.2,389.4,788,360.3,787,331z"/>
<path class="st64" d="M626.6,334.6c3.8,2.3,7.6,4.1,11.6,5.3c0.9,4.2,2.1,8.4,3.6,12.5c1.9,1.2,4,2.1,6.2,2.7c1,3.3,2.8,6,5.3,8
	c0.9,6,2.4,12,4.5,17.8c1.7,25.8,3.2,51.4,4.5,76.7c4.7,1.2,9.8,1.8,15.2,1.8c9.1,0.2,17.7-1,25.8-3.6c0.6,0,1.2,0,1.8,0
	c-1.7,2.6-4.1,4.4-7.1,5.3c-13.4,2.3-26.8,2.3-40.1,0c-0.3-6.6-1.8-12.9-4.5-18.7c0.9-4.4,1.5-8.9,1.8-13.4
	c-0.7-15.7-2.1-31.2-4.5-46.3c-0.8,7.8-1.9,15.5-3.6,23.2c-0.6-0.6-1.2-1.2-1.8-1.8c-1.5,18.5-1.8,36.9-0.9,55.3c-1.8,0-3.6,0-5.3,0
	c2-25.4,2.3-51,0.9-76.7c-3.2-6.2-5.6-12.7-7.1-19.6c-1.2-1.3-2.7-1.9-4.5-1.8c0-0.6,0-1.2,0-1.8c-3.8-8.4-7.3-17-10.7-25.8
	c0.6-2.1,1.2-4.2,1.8-6.2C621.1,330.8,623.5,333.2,626.6,334.6z"/>
<path class="st65" d="M861.9,372c0.6,0,1.2,0,1.8,0c0,0.6,0,1.2,0,1.8c-7.7,14.3-17.3,27.3-28.5,39.2c-2.4,1.8-4.8,3.6-7.1,5.3
	c-0.3-3.6,0-7.2,0.9-10.7c1.6,2.2,3.1,2.2,4.5,0c3.4-2.8,5.2-6.4,5.3-10.7c2.4,0,4.8,0,7.1,0c0-3,0-5.9,0-8.9
	c7.4-1.3,11.6-5.8,12.5-13.4c-1.2-0.6-2.4-1.2-3.6-1.8C857.1,372.1,859.5,371.8,861.9,372z"/>
<path class="st66" d="M546.4,359.6c5.3,2.3,9.4,5.9,12.5,10.7c6,3.3,8.7,8.7,8,16c1.8,1.2,3.6,2.4,5.3,3.6c1.5,10.4,3,20.8,4.5,31.2
	c0,4.2-0.6,8.1-1.8,11.6C574.8,404.5,565.3,380.1,546.4,359.6z"/>
<path class="st67" d="M571.3,359.6c7.1,10.1,13.6,20.2,19.6,30.3c0,7.2,0.6,14.3,1.8,21.4c-1.1-0.2-2-0.8-2.7-1.8
	c-0.3-4.9-1.2-9.6-2.7-14.3c-1.2,7.7-2.4,15.5-3.6,23.2c-4.5,4-5.7,8.7-3.6,14.3c3.3-1.9,4.2-0.7,2.7,3.6c-0.5,1.4-1.4,2.6-2.7,3.6
	c-4-1-8.1-1-12.5,0c0-2.4,0-4.8,0-7.1c2.9,0.8,5.3,0.8,7.1,0c1.2-3.5,1.8-7.4,1.8-11.6c-1.5-10.4-3-20.8-4.5-31.2
	c-1.8-1.2-3.6-2.4-5.3-3.6c0.6-7.4-2-12.7-8-16c0-3.6,0-7.1,0-10.7c-1.8,0-3.6,0-5.3,0c-1.2-4.2-2.4-8.3-3.6-12.5
	c3.4-0.4,6,0.8,8,3.6c3.8,4.1,6.5,8.9,8,14.3c1.4-2.2,2.3-4.6,2.7-7.1C569.3,358.8,570.2,359.4,571.3,359.6z"/>
<path class="st68" d="M503.6,375.6c6.6,9.3,14.4,17.9,23.2,25.8c1.1,0.8,2.2,1.1,3.6,0.9c11.5,11.4,24,21.5,37.4,30.3
	c-1.9,0.1-3.7,0.7-5.3,1.8c-1.6-1.5-2.2-3.3-1.8-5.3c-6.7-4-13.9-6.9-21.4-8.9c-1.9-1.7-4.3-2.3-7.1-1.8
	c-0.6-6.9-4.2-11.3-10.7-13.4c-4.4-6.7-9.5-13-15.2-18.7c-0.6,0.6-1.2,1.2-1.8,1.8C505.4,383.8,505.1,379.7,503.6,375.6z"/>
<path class="st69" d="M831.6,381c0.6,0,1.2,0,1.8,0c0,1.2,0,2.4,0,3.6c-5.1,5.7-8.7,12.2-10.7,19.6c-1.4-2.3-3.1-3.2-5.3-2.7
	c-6.4,3.7-11.2,8.8-14.3,15.2c-3.7,2.4-7.9,3.6-12.5,3.6c0-0.6,0-1.2,0-1.8c0.6,0,1.2,0,1.8,0c5.9-2.9,10.6-7,14.3-12.5
	c1.2-0.6,2.4-1.2,3.6-1.8C818.6,397.5,825.7,389.7,831.6,381z"/>
<path class="st70" d="M697.9,347.1c1.1,0.2,2,0.8,2.7,1.8c1,5.4,2.1,10.7,3.6,16c0.9,30.3,1.2,60.6,0.9,90.9c-0.6,0-1.2,0-1.8,0
	c0.6-29.4,0-58.5-1.8-87.4C701,361.2,699.8,354.1,697.9,347.1z"/>
<path class="st71" d="M653.3,363.1c3.7,6.9,6.6,14,8.9,21.4c0,24.4,0,48.7,0,73.1c-1.3-25.3-2.8-50.8-4.5-76.7
	C655.8,375.1,654.3,369.2,653.3,363.1z"/>
<path class="st72" d="M719.3,341.7c3.7,9.6,6.1,19.7,7.1,30.3c1.6,26.1,2.2,52.3,1.8,78.4c-3-25.2-4.7-50.8-5.3-76.7
	c0-0.6,0-1.2,0-1.8C720.4,362.1,719.2,352,719.3,341.7z"/>
<path class="st73" d="M494.7,397c9.2,2.9,15.4,8.9,18.7,17.8c4.9,4.6,9.4,9.4,13.4,14.3C514.3,420.2,503.6,409.5,494.7,397z"/>
<path class="st74" d="M487.5,352.4c3.1,9.3,8.4,17,16,23.2c1.5,4.1,1.8,8.2,0.9,12.5c0.6-0.6,1.2-1.2,1.8-1.8
	c5.7,5.7,10.7,12,15.2,18.7c6.5,2.1,10.1,6.5,10.7,13.4c2.9-0.5,5.2,0.1,7.1,1.8c-2.9,1-5.9,1.6-8.9,1.8c-0.3,1.9,0,3.7,0.9,5.3
	c0.6-0.6,1.2-1.2,1.8-1.8c5.1,3.9,9,8.6,11.6,14.3c-2.4-0.6-4.8-1.2-7.1-1.8c-4.7-1.7-8.3-4.7-10.7-8.9c-4-4.9-8.5-9.7-13.4-14.3
	c-3.3-8.9-9.5-14.9-18.7-17.8c-1.2-6.5-2.1-13-2.7-19.6c-4.8-4.8-8.1-10.4-9.8-16.9C483,357,484.8,354.3,487.5,352.4z"/>
<path class="st75" d="M628.4,363.1c0-0.6,0-1.2,0-1.8c1.8-0.2,3.3,0.4,4.5,1.8c1.6,6.9,3.9,13.4,7.1,19.6
	c1.5,25.7,1.2,51.2-0.9,76.7c-4.2,0.3-8.4,0-12.5-0.9c-3.2-0.4-5.6-1.8-7.1-4.5c2.4,0,4.8,0,7.1,0c3.8,1.7,7.9,2.3,12.5,1.8
	c0.3-22.6,0-45.2-0.9-67.7C636,379.1,632.7,370.8,628.4,363.1z"/>
<path class="st76" d="M828,418.4c-6.2,6.4-12.7,12.3-19.6,17.8c2.6-3.8,4.4-8,5.3-12.5c1.8,0,3.6,0,5.3,0
	C819.1,416.6,822,414.9,828,418.4z"/>
<path class="st77" d="M590.9,389.9c6.5,18.2,8.9,37.2,7.1,57c7.9,0.6,15,3,21.4,7.1c-8.4-1.1-16.4-3.5-24.1-7.1
	c-0.6-11.9-1.5-23.8-2.7-35.7C591.5,404.2,590.9,397.1,590.9,389.9z"/>
<path class="st78" d="M537.5,438c2.4,0.6,4.8,1.2,7.1,1.8c3.9,2.2,8,4,12.5,5.3c0.6,5.1,3.5,7.7,8.9,8c1.3,1.2,1.9,2.7,1.8,4.5
	c-7.3-3.4-14.5-7.2-21.4-11.6C542.6,444.2,539.6,441.5,537.5,438z"/>
<path class="st79" d="M722.9,372c0,0.6,0,1.2,0,1.8c0,26.1,0,52.3,0,78.4c8.6,0.2,16.9-1.3,25-4.5c3.7-1.2,6.7-3.3,8.9-6.2
	c1.2,0,2.4,0,3.6,0c5,0.7,8.9-1,11.6-5.3c0.9-8.3,1.2-16.6,0.9-25c3,0.2,5.7,1.4,8,3.6c0.9-0.6,1.8-1.2,2.7-1.8
	c-2.3-7.7-2.3-15.4,0-23.2c1.5,7.1,2.4,14.2,2.7,21.4c0.2,3.8,1.7,6.8,4.5,8.9c4.6,0.1,8.8-1.1,12.5-3.6c0,2.7-1.2,4.8-3.6,6.2
	c3.6,3.2,5.9,7.1,7.1,11.6c-3.8-0.4-6.8-2.1-8.9-5.3c-1.7,4-2.3,8.2-1.8,12.5c-8.2,2.2-16.5,4.3-25,6.2c4.2,1,6,3.7,5.3,8
	c-8.3,2.5-16.7,3.1-25,1.8c-1.2-1.1-2.3-2.2-3.6-3.6c-7.1,4.9-14.8,8.5-23.2,10.7c-0.4-2.1,0.2-3.9,1.8-5.3c3.1-0.9,6-2.1,8.9-3.6
	c-5.4-1.7-10.7-2-16-0.9c-1.1-4.9-1.4-10-0.9-15.2c-2.2,5-4.9,9.7-8,14.3c2.4,4.5,0.9,7.5-4.5,8.9c-2.6-1.2-5.2-1.7-8-1.8
	c3.1-0.9,5.4-2.7,7.1-5.3c3.1-2.7,4.9-6.3,5.3-10.7c-1.2-25.6-2.3-51.1-3.6-76.7c4-6.7,6.9-13.9,8.9-21.4
	c1.1,10.2,2.6,20.3,4.5,30.3C720.6,375.2,721.5,373.4,722.9,372z"/>
<path class="st80" d="M722.9,373.8c0.6,25.9,2.4,51.5,5.3,76.7c5.7-1.4,11-3.1,16-5.3c4.2-1.2,8.3-2.4,12.5-3.6
	c-2.2,2.9-5.2,5-8.9,6.2c-8,3.2-16.3,4.7-25,4.5C722.9,426.1,722.9,400,722.9,373.8z"/>
<path class="st81" d="M776.3,455.8c-13.6,8.7-28.5,14.7-44.6,17.8c1.9-3.1,4.8-4.3,8.9-3.6c0-2.4,0-4.8,0-7.1
	c5,0.8,8.6-0.9,10.7-5.3C759.7,458.9,768,458.4,776.3,455.8z"/>
<path class="st82" d="M697.9,461.2c2.8,0,5.5,0.6,8,1.8c5.4-1.4,6.9-4.4,4.5-8.9c3.1-4.5,5.8-9.3,8-14.3c-0.5,5.2-0.2,10.2,0.9,15.2
	c5.3-1.1,10.7-0.8,16,0.9c-2.9,1.5-5.8,2.6-8.9,3.6c-1.6,1.5-2.2,3.3-1.8,5.3c8.3-2.2,16.1-5.8,23.2-10.7c1.2,1.3,2.4,2.5,3.6,3.6
	c-2.1,4.4-5.7,6.2-10.7,5.3c0,2.4,0,4.8,0,7.1c-4.1-0.8-7,0.4-8.9,3.6c-9.9,0.7-19.4,2.5-28.5,5.3c-22,1.9-44,1.9-66,0
	c-0.6,0-1.2,0-1.8,0c-7.4-4.5-15.7-6.6-25-6.2c-10.4-6.1-21.6-10-33.9-11.6c-2.8-1.7-5.7-2.9-8.9-3.6c0.2-1.8-0.4-3.3-1.8-4.5
	c-5.4-0.3-8.4-2.9-8.9-8c-4.5-1.3-8.6-3.1-12.5-5.3c-2.6-5.7-6.5-10.4-11.6-14.3c-0.6,0.6-1.2,1.2-1.8,1.8c-0.9-1.7-1.2-3.5-0.9-5.3
	c3.1-0.2,6-0.8,8.9-1.8c7.5,2,14.6,4.9,21.4,8.9c-0.4,2.1,0.2,3.9,1.8,5.3c1.6-1.1,3.4-1.7,5.3-1.8c0,2.4,0,4.8,0,7.1
	c4.3-1,8.5-1,12.5,0c1.2-0.9,2.1-2.1,2.7-3.6c1.5-4.3,0.7-5.5-2.7-3.6c-2.1-5.6-0.9-10.3,3.6-14.3c1.2-7.7,2.4-15.5,3.6-23.2
	c1.5,4.6,2.3,9.4,2.7,14.3c0.7,1,1.6,1.6,2.7,1.8c1.2,11.8,2.1,23.7,2.7,35.7c7.6,3.6,15.7,6,24.1,7.1c1.5,2.6,3.9,4.1,7.1,4.5
	c4.1,0.9,8.3,1.2,12.5,0.9c1.8,0,3.6,0,5.3,0c-0.9-18.3-0.6-36.7,0.9-55.3c0.6,0.6,1.2,1.2,1.8,1.8c1.6-7.7,2.8-15.4,3.6-23.2
	c2.3,15.2,3.8,30.6,4.5,46.3c-0.3,4.5-0.9,9-1.8,13.4c2.6,5.8,4.1,12.1,4.5,18.7C671.1,463.5,684.5,463.5,697.9,461.2z"/>
<path class="st83" d="M576.7,461.2c12.2,1.6,23.5,5.5,33.9,11.6c9.3-0.4,17.6,1.7,25,6.2C614.4,477.3,594.8,471.4,576.7,461.2z"/>
<path class="st84" d="M731.8,473.7c-2.4,1.2-4.8,2.4-7.1,3.6c-7.1,1.2-14.2,1.8-21.4,1.8C712.3,476.1,721.8,474.4,731.8,473.7z"/>
<path class="st85" d="M637.3,480.8c0-0.6,0-1.2,0-1.8c22,1.9,44,1.9,66,0c-11.1,2.8-22.7,4-34.8,3.6
	C658,482.4,647.6,481.8,637.3,480.8z"/>
<path class="st86" d="M469.7,536c12.5,0,25,0,37.4,0c0,25,0,49.9,0,74.9c-1.2,0-1.8-0.6-1.8-1.8c0-14.3,0-28.5,0-42.8
	c0.6-6.1,0-12-1.8-17.8c-9.4-2-18.9-2.3-28.5-0.9c-2.8,16.1-4,32.5-3.6,49c0.5,5.1,0,9.9-1.8,14.3C469.7,586,469.7,561,469.7,536z"
	/>
<path class="st87" d="M505.4,566.4c-1.4,2-2.3,4.4-2.7,7.1c-9.6-1.7-19.4-2.3-29.4-1.8c0,8.3,0,16.6,0,25c-0.6,0-1.2,0-1.8,0
	c-0.4-16.6,0.7-32.9,3.6-49c9.6-1.4,19.1-1.1,28.5,0.9C505.3,554.4,505.9,560.3,505.4,566.4z"/>
<path class="st88" d="M1152.5,553.9c-1.7,3.1-2.3,6.7-1.8,10.7c-2.5-0.1-4.9,0.5-7.1,1.8c-1.4-0.5-2.6-1.4-3.6-2.7
	c1.6-3,2.2-6.3,1.8-9.8c-2.4,0-4.8,0-7.1,0c0,1.8,0,3.6,0,5.3c-2.4,0-4.8,0-7.1,0c0.5,2.6-0.1,5-1.8,7.1c-3.1,0.9-6,2.1-8.9,3.6
	c2.6,2.4,3.8,5.4,3.6,8.9c-5.7-3.7-8.1-9-7.1-16c1.3-16.7,10.2-22.9,26.7-18.7C1146.6,544.4,1150.7,547.7,1152.5,553.9z"/>
<path class="st89" d="M1152.5,553.9c5.5,9.7,3.7,18.3-5.3,25.8c-8.1,2.8-16.4,3.3-25,1.8c-1-0.7-1.6-1.6-1.8-2.7
	c0.2-3.5-1-6.5-3.6-8.9c2.9-1.5,5.8-2.6,8.9-3.6c1.7-2.1,2.2-4.5,1.8-7.1c2.4,0,4.8,0,7.1,0c0-1.8,0-3.6,0-5.3c2.4,0,4.8,0,7.1,0
	c0.4,3.5-0.2,6.8-1.8,9.8c0.9,1.2,2.1,2.1,3.6,2.7c2.2-1.3,4.6-1.9,7.1-1.8C1150.2,560.6,1150.8,557,1152.5,553.9z"/>
<path class="st90" d="M505.4,566.4c0,14.3,0,28.5,0,42.8c-1.3-3.7-2.5-7.5-3.6-11.6c-9.5-0.9-19-1.2-28.5-0.9c0-8.3,0-16.6,0-25
	c10-0.5,19.8,0,29.4,1.8C503.1,570.7,504,568.3,505.4,566.4z"/>
<path class="st91" d="M104.3,609.1c-13.1-0.3-26.2,0-39.2,0.9c-10.1,0.1-19.6,2.2-28.5,6.2c4.4-4.2,9.7-6.8,16-8
	C70.1,602.3,87.4,602.6,104.3,609.1z"/>
<path class="st92" d="M902.9,650.1c-3.8-2.1-6.2-5.4-7.1-9.8c-2.4-1.2-4.8-2.4-7.1-3.6c0.6-0.6,1.2-1.2,1.8-1.8
	c-1.6-1.3-2.8-2.7-3.6-4.5c-3.3-4.8-7.4-8.6-12.5-11.6c-8.5-1.1-16.2-4.1-23.2-8.9c-13.7-0.9-27.3-1.2-41-0.9c0.1,3.7,1.9,6.4,5.3,8
	c-0.6,0.6-1.2,1.2-1.8,1.8c-7.4-1.9-15.1-2.8-23.2-2.7c6.6-4.1,13.7-7.4,21.4-9.8c29.8-5.9,56,1.2,78.4,21.4
	C895.8,634.7,900,642.1,902.9,650.1z"/>
<path class="st93" d="M471.5,596.7c0.6,0,1.2,0,1.8,0c9.5-0.3,19,0,28.5,0.9c1.1,4.1,2.3,7.9,3.6,11.6c0,1.2,0.6,1.8,1.8,1.8
	c-0.3,4.2,0,8.4,0.9,12.5c3.9-5.4,8.9-9,15.2-10.7c3.9,2,7.5,1.1,10.7-2.7c11.9-1.2,23.8-1.2,35.7,0c6.2,0.4,10.9,3.1,14.3,8
	c-4.2,1.1-8.1,2.8-11.6,5.3c-12.1-9-25.2-10.7-39.2-5.3c-3.9-0.5-7.8-1.1-11.6-1.8c0,3,0,5.9,0,8.9c-2.5,0.1-4.9-0.5-7.1-1.8
	c-1.6,1.5-2.2,3.3-1.8,5.3c-9.8,1.5-12.7-2-8.9-10.7c-9-0.6-17.9,0-26.7,1.8c-4,13.3-5.8,27-5.3,41c-0.6,0-1.2,0-1.8,0
	c0-16.6,0-33.3,0-49.9C471.5,606.6,472,601.8,471.5,596.7z"/>
<path class="st94" d="M1042,610.9c5.7,1.6,10.5,4.5,14.3,8.9c-9.6-1.9-18.8-4.9-27.6-8.9c-1.4,0.3-2.6,0.9-3.6,1.8
	c-3.9-2.2-8.4-3.4-13.4-3.6c-10.1,0.7-20.2,1.5-30.3,2.7c-6.9,3.8-14,7-21.4,9.8c2.4-2.4,4.8-4.8,7.1-7.1
	C991.5,604,1016.4,602.8,1042,610.9z"/>
<path class="st95" d="M421.6,630.5c-4.9-3-9-6.9-12.5-11.6c-14.5-4.8-29.3-8-44.6-9.8c-5.5,0-10.9,0.9-16,2.7
	c-5.7,5.7-12.3,10.2-19.6,13.4c-1.3,3.4-1.3,7,0,10.7c-4.7-1.7-9.4-3.4-14.3-5.3c-0.7-4.4-2.8-8-6.2-10.7c-1,2.9-0.1,5.3,2.7,7.1
	c-7,3.1-10,0.7-8.9-7.1c-2.6,0.5-5-0.1-7.1-1.8c-1.8-4.2-4.8-7.1-8.9-8.9c-12.5,1.4-25,2.9-37.4,4.5c1.2,1.2,2.4,2.4,3.6,3.6
	c-4.8,0.6-9.5,1.2-14.3,1.8c-3.8,2.3-5.5,5.5-5.3,9.8c-8.1,0.3-13.5-3.3-16-10.7c0.6-1.2,1.2-2.4,1.8-3.6
	c-9.4-1.8-18.9-2.4-28.5-1.8c0.5,4.6-0.1,8.7-1.8,12.5c0-5.3,0-10.7,0-16c11.3,0,22.6,0,33.9,0c-0.5,4,0.1,7.5,1.8,10.7
	c-0.3,1.9,0,3.7,0.9,5.3c16.8-17.6,37.3-23.9,61.5-18.7c15.4,2.4,27,10.4,34.8,24.1c17.4-22.6,40.2-30.6,68.6-24.1
	C404.1,609.6,414.8,617.6,421.6,630.5z"/>
<path class="st96" d="M1245.2,605.6c11.3-0.3,22.6,0,33.9,0.9c8.4,1.1,16.2,3.8,23.2,8c-12.5-3.8-25.2-6.2-38.3-7.1
	c-8.6,0.8-17.2,1.7-25.8,2.7c-4,1.7-7.5,3.8-10.7,6.2c-12,3.7-21.5,10.8-28.5,21.4c3.6-8.7,9.6-15.5,17.8-20.5
	C1225.6,611.8,1235.1,607.9,1245.2,605.6z"/>
<path class="st97" d="M1302.2,614.5c2.4,1.2,4.8,2.4,7.1,3.6c3.5,2.6,6.7,5.5,9.8,8.9c1.8,4.9,4.5,9,8,12.5
	c0.6,4.8,1.2,9.5,1.8,14.3c0,19,0,38,0,57c-1.6-14-2.8-28.2-3.6-42.8c0-4.2,0-8.3,0-12.5c0.3-3,0-6-0.9-8.9
	c-4.4-2.7-8.9-5.6-13.4-8.9c4.4-1.7,5.8-4.6,4.5-8.9c-2.8-1.6-5.5-3.3-8-5.3c-1.2,1.8-2.4,3.6-3.6,5.3c-10.6-3.7-20.7-8.1-30.3-13.4
	c-12.5-1.7-24.7-0.8-36.5,2.7c-3.3-0.3-6.6-0.9-9.8-1.8c3.2-2.5,6.7-4.6,10.7-6.2c8.6-1,17.2-1.9,25.8-2.7
	C1277,608.3,1289.8,610.7,1302.2,614.5z"/>
<path class="st98" d="M612.3,650.1c-1.2-0.6-2.4-1.2-3.6-1.8c-3.8-11.3-10.3-21.1-19.6-29.4c-1.7-0.9-3.5-1.2-5.3-0.9
	c-3.3-4.9-8.1-7.6-14.3-8c-11.9-1.2-23.8-1.2-35.7,0c-3.2,3.7-6.8,4.6-10.7,2.7c3.7-2.6,7.9-4.6,12.5-6.2
	C573.7,599.9,599.2,614.5,612.3,650.1z"/>
<path class="st99" d="M104.3,609.1c14.7,2.9,26,10.6,33.9,23.2c4.8,7.5,7.5,15.8,8,25c0.9,28.5,1.2,57,0.9,85.6c-0.6,0-1.2,0-1.8,0
	c0.3-19.6-0.3-39.3-1.8-58.8c1.7-16.5-0.7-32.2-7.1-47.2c-4.9-4.1-10.3-5-16-2.7c-1.8-0.8-1.8-2,0-3.6c-1.5-0.6-3-1.2-4.5-1.8
	c-5.1,1.9-9.6,4.8-13.4,8.9c5.3,8.1,7.6,17,7.1,26.7c0.5,3.4-0.1,6.4-1.8,8.9c1.5-11.7-0.8-22.4-7.1-32.1c0-2.7-1.2-4.8-3.6-6.2
	c-15.2-6.2-30-5.9-44.6,0.9c0,2.4,0,4.8,0,7.1c-2.2,4.3-4,8.7-5.3,13.4c-12.5,0.9-24.9,1.2-37.4,0.9c1.1-18.9,10-32.6,26.7-41
	c8.9-4.1,18.4-6.2,28.5-6.2C78.1,609.1,91.2,608.8,104.3,609.1z"/>
<path class="st100" d="M689,621.6c-0.2,1.3,0.1,2.5,0.9,3.6c2.5-4,5.8-7,9.8-8.9c12.2-7.1,25.3-8.9,39.2-5.3c0.3,9.5,0,19-0.9,28.5
	c-7.6,1.1-15,2.3-22.3,3.6c-4.3-0.4-7.8,0.8-10.7,3.6c-3.4,1-6.4,2.8-8.9,5.3c1-3.4,2.8-6.3,5.3-8.9c11-4.8,22.3-6.3,33.9-4.5
	c2-5.5,2.3-11.1,0.9-16.9c-0.6,1.2-1.2,2.4-1.8,3.6c-1.8-2.4-3.6-4.8-5.3-7.1c-9.6,2.2-18.5,2.2-26.7,0c-3.1,2.9-5.2,6.5-6.2,10.7
	c-2.5,2-5.2,3.8-8,5.3c-1.2-5.2-4.4-7.6-9.8-7.1c0.1,3.3-1.4,5.7-4.5,7.1c-0.9-1.7-1.2-3.5-0.9-5.3c-4.2,0.5-8.1,0.5-11.6,0
	c-1.5,2.8-2.7,5.8-3.6,8.9c-1.2,1.3-2.7,1.9-4.5,1.8c0-10.1,0-20.2,0-30.3c11.3,0,22.6,0,33.9,0C686.7,613.7,687.3,617.9,689,621.6z
	"/>
<path class="st101" d="M696.1,651.9c-2.2,2.7-4,5.6-5.3,8.9c-1.8,11.5-2.4,23.4-1.8,35.7c-0.6,0-1.2,0-1.8,0
	c0.3-14.3,0-28.5-0.9-42.8c-3.2-2.7-3.5-5.6-0.9-8.9c2.3-3,5.3-5.1,8.9-6.2c-0.9-1.2-2.1-2.1-3.6-2.7c-5.1,2.2-9.5,5.1-13.4,8.9
	c-1.2-1.2-2.4-2.4-3.6-3.6c-2.2,5-3.4,10.3-3.6,16c-1.4-6.2-3.2-12.1-5.3-17.8c-4.7,6.3-7.7,13.4-8.9,21.4
	c-0.9,13.7-1.2,27.3-0.9,41c0,7.7,0,15.5,0,23.2c-0.6,0-1.2,0-1.8,0c0-28.5,0-57,0-85.6c1.8,0.2,3.3-0.4,4.5-1.8
	c0.8-3.1,2-6.1,3.6-8.9c3.5,0.5,7.3,0.5,11.6,0c-0.3,1.9,0,3.7,0.9,5.3c3-1.4,4.5-3.8,4.5-7.1c5.4-0.4,8.6,1.9,9.8,7.1
	c2.8-1.6,5.5-3.3,8-5.3c1-4.2,3.1-7.8,6.2-10.7c8.3,2.2,17.2,2.2,26.7,0c1.8,2.4,3.6,4.8,5.3,7.1c0.6-1.2,1.2-2.4,1.8-3.6
	c1.4,5.8,1.1,11.5-0.9,16.9c-11.6-1.8-22.9-0.4-33.9,4.5C698.9,645.6,697.1,648.5,696.1,651.9z"/>
<path class="st102" d="M721.1,605.6c6.4-0.5,12.7,0.1,18.7,1.8c0.9,11.9,1.2,23.8,0.9,35.7c-8.3,0-16.6,0-25,0
	c7.2-1.2,14.7-2.4,22.3-3.6c0.9-9.5,1.2-19,0.9-28.5c-13.9-3.5-27-1.7-39.2,5.3C705.1,609.7,712.3,606.1,721.1,605.6z"/>
<path class="st16" d="M886.9,630.5c-1.4,1.4-2.3,3.1-2.7,5.3c-1.8-1.5-3.9-2.1-6.2-1.8c0-1.8,0-3.6,0-5.3c-4.9-0.6-9.7,0-14.3,1.8
	c2,3.6,4.9,6,8.9,7.1c-3.7,3-7.3,6-10.7,8.9c-4.7-5.6-10.6-9.4-17.8-11.6c-10.1-1.2-20.2-1.2-30.3,0c-2.4,1.5-3.5,3.5-3.6,6.2
	c-3.6,4.2-7.2,8.4-10.7,12.5c-0.6-4,0.5-7.3,3.6-9.8c-2-1.1-3.8-2.6-5.3-4.5c-2.2,2.1-2.2,4.1,0,6.2c-0.9,0.3-1.8,0.6-2.7,0.9
	c-2.9-2.3-5-5.3-6.2-8.9c-2.1-1.7-4.5-2.2-7.1-1.8c0.4,2.9-0.2,5.6-1.8,8c-4,0.7-7.5-0.2-10.7-2.7c7.7-7.7,14.8-16,21.4-25
	c8.1-0.1,15.8,0.8,23.2,2.7c0.6-0.6,1.2-1.2,1.8-1.8c-3.5-1.6-5.2-4.3-5.3-8c13.7-0.3,27.3,0,41,0.9c7,4.8,14.7,7.8,23.2,8.9
	C879.4,621.9,883.6,625.8,886.9,630.5z"/>
<path class="st103" d="M1325.4,655.5c-1.2-2.2-2.4-4.5-3.6-7.1c-1.2,0.9-2.1,2.1-2.7,3.6c-2.4-6-6.3-11.1-11.6-15.2
	c-2.9-0.9-5.9-1.2-8.9-0.9c0,4.8,0,9.5,0,14.3c-1.8,0-3.6,0-5.3,0c0,5.9,0,11.9,0,17.8c0.5,2.9-0.1,5.2-1.8,7.1
	c3.3-16.4-1.5-29.4-14.3-39.2c-1.1-1.2-2.2-2.3-3.6-3.6c-12.6-3.3-24.5-1.8-35.7,4.5c-1.5,1.8-2.1,3.9-1.8,6.2
	c0,1.2-0.6,1.8-1.8,1.8c-3.1,1.9-4.8,4.9-5.3,8.9c-10.6,1.8-21.3,2.4-32.1,1.8c0.2-6,0.8-11.9,1.8-17.8c7-10.5,16.5-17.7,28.5-21.4
	c3.2,0.8,6.5,1.4,9.8,1.8c11.8-3.5,24-4.4,36.5-2.7c9.6,5.2,19.7,9.7,30.3,13.4c1.2-1.8,2.4-3.6,3.6-5.3c2.5,2,5.2,3.8,8,5.3
	c1.4,4.3-0.1,7.3-4.5,8.9c4.5,3.3,8.9,6.2,13.4,8.9C1325.4,649.5,1325.7,652.5,1325.4,655.5z"/>
<path class="st104" d="M1056.2,619.8c2.4,1.8,4.8,3.6,7.1,5.3c1.2,3,2.4,5.9,3.6,8.9c-2.9-1.3-5.9-0.7-8.9,1.8
	c-1.7-2.1-2.2-4.5-1.8-7.1c-7.6-2.3-15.3-3.2-23.2-2.7c-2.8,1.5-5.8,2.7-8.9,3.6c1.3,1.2,1.9,2.7,1.8,4.5c-2.4,0-4.8,0-7.1,0
	c-0.6,0-1.2,0-1.8,0c-2.8-2.3-6.3-3.5-10.7-3.6c-7.9,0.8-15.7,2.6-23.2,5.3c0,2.4,0,4.8,0,7.1c-2.9,4.9-4.1,10.2-3.6,16
	c-2.6-1.1-3.8-3.2-3.6-6.2c2.2-4.8,4-9.9,5.3-15.2c-2.1-1.7-4.5-2.2-7.1-1.8c0-1.8,0-3.6,0-5.3c4.9-3.4,8.2-2.3,9.8,3.6
	c5.3-2,5.6-4.3,0.9-7.1c2.4-2,4.5-1.4,6.2,1.8c3-1.6,6.3-2.2,9.8-1.8c0-1.8,0-3.6,0-5.3c7.2,0.3,14.3,0,21.4-0.9
	c-10.6-5.9-21-5.6-31.2,0.9c-1.4-2.3-3.5-3.5-6.2-3.6c-7.2,5.4-15,10.2-23.2,14.3c-1.4,2.2-2.3,4.6-2.7,7.1c-0.4-7.7-3.1-8.9-8-3.6
	c0-1.2,0-2.4,0-3.6c1.6-4.6,4.6-8.2,8.9-10.7c7.4-2.8,14.5-6.1,21.4-9.8c10.1-1.1,20.2-2,30.3-2.7c5,0.1,9.4,1.3,13.4,3.6
	c1-0.9,2.2-1.5,3.6-1.8C1037.4,614.9,1046.6,617.9,1056.2,619.8z"/>
<path class="st105" d="M421.6,630.5c4.6,8.3,7.3,17.2,8,26.7c1.5,40.7,1.2,81.1-0.9,121.2c0.6-18.1,0-36-1.8-53.5
	c0-5.9,0-11.9,0-17.8c0.3-16.6,0-33.3-0.9-49.9c-1.4-6.8-3.4-13.4-6.2-19.6c-3.9-1.3-7.8-2.5-11.6-3.6c-1.1,1.7-0.8,3.2,0.9,4.5
	c-4.1,1.4-7.7,0.5-10.7-2.7c-7.2,3-7.8,5.7-1.8,8c-0.7,17.1-1.3,34.7-1.8,52.6c-0.6,0-1.2,0-1.8,0c0.6-12.2,0-24.1-1.8-35.7
	c0-1.8,0-3.6,0-5.3c0.3-3,0-6-0.9-8.9c-3.9-3.9-7.7-7.7-11.6-11.6c-13.3-1.8-26.4-0.9-39.2,2.7c-4.6,3.8-8.8,7.9-12.5,12.5
	c0-2.4,0-4.8,0-7.1c-2.9-0.2-5,0.9-6.2,3.6c-0.3-3.2-1.8-5.6-4.5-7.1c-1.4,3.4-2.3,7-2.7,10.7c-1.2,1.5-2.7,2.7-4.5,3.6
	c-2.4-2.4-4.8-2.4-7.1,0c-0.6-1.2-1.2-2.4-1.8-3.6c1.2-3.3,3-6.3,5.3-8.9c-0.6-1.2-1.2-2.4-1.8-3.6c-4.7,1.4-8,4.4-9.8,8.9
	c-1.4,6.4-1.1,12.6,0.9,18.7c-1.1,1.3-2,2.8-2.7,4.5c-0.3,14.6-1.2,28.8-2.7,42.8c0-0.6,0-1.2,0-1.8c0.6-18.7,0-37.2-1.8-55.3
	c-1.5-4.2-3.9-7.8-7.1-10.7c-0.8-1.7-2-3.2-3.6-4.5c-13.4-6.2-26.4-5.9-39.2,0.9c-5.3,2-9.1,5.6-11.6,10.7
	c-0.9,42.2-1.2,84.4-0.9,126.6c-0.6,0-1.2,0-1.8,0c0-27.3,0-54.7,0-82c-0.6-17.1,0-34,1.8-50.8c-2.7-1.5-4.8-3.6-6.2-6.2
	c-6.8,4-14.3,6.7-22.3,8c4.8,0.6,9.5,1.2,14.3,1.8c-6.4,0-12.4,1.5-17.8,4.5c-2,5.5-3.8,10.8-5.3,16c0-14.9,0-29.7,0-44.6
	c1.7-3.8,2.3-7.9,1.8-12.5c9.6-0.6,19.1,0,28.5,1.8c-0.6,1.2-1.2,2.4-1.8,3.6c2.6,7.4,7.9,11,16,10.7c-0.2-4.3,1.6-7.6,5.3-9.8
	c4.8-0.6,9.5-1.2,14.3-1.8c-1.2-1.2-2.4-2.4-3.6-3.6c12.5-1.6,25-3.1,37.4-4.5c4.2,1.8,7.1,4.8,8.9,8.9c2.1,1.7,4.5,2.2,7.1,1.8
	c-1.1,7.9,1.9,10.2,8.9,7.1c-2.7-1.8-3.6-4.2-2.7-7.1c3.4,2.7,5.5,6.3,6.2,10.7c4.8,1.9,9.6,3.7,14.3,5.3c-1.3-3.7-1.3-7.3,0-10.7
	c7.3-3.2,13.9-7.7,19.6-13.4c5.2-1.8,10.5-2.7,16-2.7c15.3,1.8,30.1,5,44.6,9.8C412.6,623.6,416.7,627.5,421.6,630.5z"/>
<path class="st106" d="M1066.9,634.1c0,2.4,0,4.8,0,7.1c2.1-0.4,3.9,0.2,5.3,1.8c1.6,4,2.2,8.2,1.8,12.5c-10.7,0.3-21.4,0-32.1-0.9
	c-3.2-8.8-8.5-15.6-16-20.5c0.2-1.8-0.4-3.3-1.8-4.5c3.1-0.8,6.1-2,8.9-3.6c7.9-0.6,15.6,0.3,23.2,2.7c-0.5,2.6,0.1,5,1.8,7.1
	C1061,633.4,1064,632.8,1066.9,634.1z"/>
<path class="st107" d="M583.8,618c1.9-0.3,3.7,0,5.3,0.9c9.3,8.3,15.8,18.1,19.6,29.4c-2.2-1.3-4.5-1.9-7.1-1.8
	c-2.2-2.7-2.2-5.4,0-8c-5.6,0.2-11-0.1-16-0.9c0.2,3,1.4,5.7,3.6,8c-0.6,0.9-1.2,1.8-1.8,2.7c-4.8-1.9-9.6-3.7-14.3-5.3
	c2.2-2.8,5.2-4.9,8.9-6.2c-5.5-1.5-10.6-0.6-15.2,2.7c-13.9-4.1-28.2-6.5-42.8-7.1c-9.2,5.3-14.8,13-16.9,23.2c0,25,0,49.9,0,74.9
	c-0.6,0-1.2,0-1.8,0c0-1.2,0-2.4,0-3.6c0-10.1,0-20.2,0-30.3c0-15.5,0-30.9,0-46.3c-9.6-0.6-19.1,0-28.5,1.8
	c-2.6,8.3-4.4,16.6-5.3,25c0-5.3,0-10.7,0-16c-0.4-14,1.4-27.7,5.3-41c8.8-1.8,17.7-2.4,26.7-1.8c-3.8,8.7-0.9,12.2,8.9,10.7
	c-0.4-2.1,0.2-3.9,1.8-5.3c2.2,1.3,4.6,1.9,7.1,1.8c0-3,0-5.9,0-8.9c3.8,0.7,7.7,1.3,11.6,1.8c14-5.4,27.1-3.6,39.2,5.3
	C575.7,620.9,579.6,619.1,583.8,618z"/>
<path class="st108" d="M100.7,641.2c-16.5-10.1-32.6-9.5-48.1,1.8c0-2.4,0-4.8,0-7.1c14.5-6.8,29.4-7.1,44.6-0.9
	C99.5,636.4,100.7,638.5,100.7,641.2z"/>
<path class="st109" d="M1017,634.1c-7.2-0.3-14.3,0-21.4,0.9c-4.9,1.6-9,4.3-12.5,8c0-2.4,0-4.8,0-7.1c7.5-2.8,15.2-4.6,23.2-5.3
	C1010.7,630.6,1014.2,631.8,1017,634.1z"/>
<path class="st110" d="M1152.5,778.5c0-24.4,0-48.7,0-73.1c0-32.1-0.5-64.2-1.8-96.3c-10.7-0.3-21.4,0-32.1,0.9
	c-1.7,9.6-2.3,19.4-1.8,29.4c-1.8,23.5-2.4,47.2-1.8,71.3c0,22.6,0,45.2,0,67.7c-1.8-56.7-2.4-113.8-1.8-171.1c13.7,0,27.3,0,41,0
	C1154.9,664.7,1154.3,721.7,1152.5,778.5z"/>
<path class="st111" d="M1152.5,705.4c-0.6,0-1.2,0-1.8,0c0-10.1,0-20.2,0-30.3c0.5-15.1-1-30-4.5-44.6c-2-2.2-4.1-2.2-6.2,0
	c-3.1-4.5-5.4-3.9-7.1,1.8c-2.9-2-5.6-4.4-8-7.1c-2.2,5.4-4.8,10.2-8,14.3c-0.5-10,0-19.8,1.8-29.4c10.7-0.9,21.4-1.2,32.1-0.9
	C1151.9,641.2,1152.5,673.3,1152.5,705.4z"/>
<path class="st112" d="M861.9,646.6c0,0.6,0,1.2,0,1.8c-15.6-13.6-32.9-16-51.7-7.1c0-2.7,1.2-4.8,3.6-6.2c10.1-1.2,20.2-1.2,30.3,0
	C851.3,637.1,857.2,641,861.9,646.6z"/>
<path class="st113" d="M573.1,643c-1.6,1.3-2.2,3-1.8,5.3c-23.8-18.5-45.2-16.2-64.2,7.1c2.1-10.2,7.8-17.9,16.9-23.2
	c14.6,0.6,28.9,3,42.8,7.1c4.6-3.3,9.6-4.2,15.2-2.7C578.3,638.1,575.3,640.2,573.1,643z"/>
<path class="st114" d="M1277.3,635.9c-8.3-1.6-16.6-1.9-25-0.9c-6.4,0.8-11.7,3.5-16,8c-0.3-2.4,0.3-4.4,1.8-6.2
	c11.1-6.3,23-7.8,35.7-4.5C1275,633.5,1276.2,634.7,1277.3,635.9z"/>
<path class="st115" d="M391.3,655.5c-8.4-16.6-22-22.9-41-18.7c-8.5,2.3-14.5,7.3-17.8,15.2c-2.6,1.5-4.1,3.9-4.5,7.1
	c-0.9,14.2-1.2,28.5-0.9,42.8c-2.3-16.4-2.3-33,0-49.9c0-0.6,0-1.2,0-1.8c3.7-4.5,7.8-8.7,12.5-12.5c12.8-3.6,25.9-4.5,39.2-2.7
	c3.9,3.9,7.7,7.7,11.6,11.6C391.3,649.5,391.6,652.5,391.3,655.5z"/>
<path class="st116" d="M979.6,659.1c3.1,4,6.7,7.9,10.7,11.6c5.7,1.6,11.1,3.7,16,6.2c-22-1.9-33.9-12.6-35.7-32.1
	c-3-0.3-6,0-8.9,0.9c5.3,2.5,6.5,6.3,3.6,11.6c-5.2,2.3-9.7,1.1-13.4-3.6c-0.6,0.6-1.2,1.2-1.8,1.8c0.6,6.7,0.9,13.2,0.9,19.6
	c-7.9-11.9-8.8-24.4-2.7-37.4c0.7-1,1.6-1.6,2.7-1.8c4.9-5.3,7.6-4.1,8,3.6c0.4-2.6,1.3-4.9,2.7-7.1c8.2-4.1,15.9-8.8,23.2-14.3
	c2.7,0.1,4.8,1.2,6.2,3.6c10.2-6.5,20.6-6.8,31.2-0.9c-7.1,0.9-14.2,1.2-21.4,0.9c0,1.8,0,3.6,0,5.3c-3.5-0.4-6.8,0.2-9.8,1.8
	c-1.7-3.1-3.8-3.7-6.2-1.8c4.7,2.8,4.4,5.2-0.9,7.1c-1.6-5.8-4.9-7-9.8-3.6c0,1.8,0,3.6,0,5.3c2.6-0.5,5,0.1,7.1,1.8
	c-1.4,5.3-3.2,10.3-5.3,15.2C975.8,655.8,977,657.9,979.6,659.1z"/>
<path class="st117" d="M689,621.6c-1.7-3.8-2.3-7.9-1.8-12.5c-11.3,0-22.6,0-33.9,0c0,10.1,0,20.2,0,30.3c0,28.5,0,57,0,85.6
	c0,17.8,0,35.7,0,53.5c-0.6,0-1.2,0-1.8,0c0-57,0-114.1,0-171.1c12.5,0,25,0,37.4,0C689,612.1,689,616.9,689,621.6z"/>
<path class="st118" d="M1150.7,675.1c-3.2-2.2-5-5.4-5.3-9.8c1.4-3.7,2-7.6,1.8-11.6c-9,0.2-17.6,1.4-25.8,3.6
	c-3.5,17.6-5,35.4-4.5,53.5c-0.6,0-1.2,0-1.8,0c-0.6-24.1,0-47.9,1.8-71.3c3.2-4.1,5.9-8.8,8-14.3c2.4,2.7,5.1,5.1,8,7.1
	c1.7-5.7,4.1-6.3,7.1-1.8c2.2-2.2,4.3-2.2,6.2,0C1149.7,645.1,1151.2,660,1150.7,675.1z"/>
<path class="st119" d="M1325.4,655.5c0,4.2,0,8.3,0,12.5c-1.8,0.2-3.3-0.4-4.5-1.8c-5.7-14.8-8.4-14.2-8,1.8
	c-4.8,0.3-8.9,2.1-12.5,5.3c-1.4-3.2-3.8-5-7.1-5.3c0-5.9,0-11.9,0-17.8c1.8,0,3.6,0,5.3,0c0-4.8,0-9.5,0-14.3c3-0.3,6,0,8.9,0.9
	c5.3,4.1,9.1,9.1,11.6,15.2c0.6-1.4,1.4-2.6,2.7-3.6C1323,650.9,1324.2,653.3,1325.4,655.5z"/>
<path class="st120" d="M31.2,632.3c6.3,0.6,11.6,3.3,16,8c-1.7,4.8-2.3,9.9-1.8,15.2c-11.3,0-22.6,0-33.9,0c2.3-5.1,3.5-10.4,3.6-16
	c5.4-1.9,10.8-1.9,16,0C31.2,637.1,31.2,634.7,31.2,632.3z"/>
<path class="st121" d="M221.9,607.4c1.7,3.8,2.3,7.9,1.8,12.5c-1.7-3.1-2.3-6.7-1.8-10.7c-11.3,0-22.6,0-33.9,0c0,5.3,0,10.7,0,16
	c0,14.9,0,29.7,0,44.6c0,8.9,0,17.8,0,26.7c-0.6,0-1.2,0-1.8,0c0-29.7,0-59.4,0-89.1C198.2,607.4,210,607.4,221.9,607.4z"/>
<path class="st122" d="M886.9,630.5c0.8,1.7,2,3.2,3.6,4.5c-0.6,0.6-1.2,1.2-1.8,1.8c2.4,1.2,4.8,2.4,7.1,3.6
	c0.9,4.4,3.3,7.7,7.1,9.8c2.6,8.7,4.4,17.6,5.3,26.7c-1.5-3.4-3-6.9-4.5-10.7c-1.3,1-2.8,1.6-4.5,1.8c-2.7-1.3-5.1-3.1-7.1-5.3
	c-2.1,3.2-5.1,5-8.9,5.3c0.6-3.6,0.6-6.9,0-9.8c3.6-3.2,3.9-6.5,0.9-9.8c-1.1,4-3.5,7-7.1,8.9c-0.9,5.9-1.2,11.9-0.9,17.8
	c-1.8-5-3.3-10.4-4.5-16c-2.5-4.5-5.7-8.1-9.8-10.7c0-0.6,0-1.2,0-1.8c3.4-2.9,7-5.9,10.7-8.9c-4-1.1-7-3.5-8.9-7.1
	c4.6-1.7,9.4-2.3,14.3-1.8c0,1.8,0,3.6,0,5.3c2.4-0.3,4.4,0.3,6.2,1.8C884.6,633.7,885.5,631.9,886.9,630.5z"/>
<path class="st123" d="M799.5,653.7c-0.6,1.2-1.2,2.4-1.8,3.6c-3.4,2.6-5.5,6.2-6.2,10.7c-0.9,13.1-1.2,26.1-0.9,39.2
	c-2.6-6-3.8-12.6-3.6-19.6c0.1-4.9,0.7-9.6,1.8-14.3c-1-3.7-3.4-5.4-7.1-5.3c0-1.8,0-3.6,0-5.3c1.8,0,3.6,0,5.3,0
	c-0.3-5-1.5-9.8-3.6-14.3c-1.8,0-3.6,0-5.3,0c0.7,4.5-0.5,8.4-3.6,11.6c-5.2,2.1-10.5,3.5-16,4.5c1.8-8.6,5.4-16.4,10.7-23.2
	c3.2,2.5,6.7,3.4,10.7,2.7c1.6-2.4,2.2-5.1,1.8-8c2.6-0.5,5,0.1,7.1,1.8c1.2,3.6,3.3,6.6,6.2,8.9c0.9-0.3,1.8-0.6,2.7-0.9
	c-2.2-2.1-2.2-4.2,0-6.2c1.5,1.8,3.3,3.3,5.3,4.5C800.1,646.4,798.9,649.7,799.5,653.7z"/>
<path class="st124" d="M951,632.3c0,1.2,0,2.4,0,3.6c-1.1,0.2-2,0.8-2.7,1.8c-6.1,13-5.2,25.5,2.7,37.4c3,4.8,6,9.5,8.9,14.3
	c-17.2-14.4-21.6-32.2-13.4-53.5C947.8,634.3,949.3,633.1,951,632.3z"/>
<path class="st125" d="M1063.3,625.2c10.1,8.9,14.3,20.2,12.5,33.9c-12.5,0-25,0-37.4,0c-1.2-12.5-7.8-20.8-19.6-25
	c2.4,0,4.8,0,7.1,0c7.5,4.9,12.9,11.7,16,20.5c10.7,0.9,21.4,1.2,32.1,0.9c0.4-4.3-0.2-8.5-1.8-12.5c-1.5-1.6-3.3-2.2-5.3-1.8
	c0-2.4,0-4.8,0-7.1C1065.7,631.1,1064.5,628.2,1063.3,625.2z"/>
<path class="st126" d="M1198.8,637.7c-1,5.9-1.6,11.8-1.8,17.8c10.8,0.6,21.5,0,32.1-1.8c0.5-4,2.3-7,5.3-8.9
	c-1.3,4-1.9,8.2-1.8,12.5c-13.1,0-26.1,0-39.2,0C1192.5,649.8,1194.3,643.2,1198.8,637.7z"/>
<path class="st127" d="M143.5,684c-1.5-8.6-2.4-17.5-2.7-26.7c-0.3,3.9-1.5,7.5-3.6,10.7c-0.9-4.2-2.1-8.4-3.6-12.5
	c-0.6,1.8-1.2,3.6-1.8,5.3c-1.8-3.3-3.3-6.9-4.5-10.7c-1.2,5.9-2.4,11.9-3.6,17.8c-1.5-1.8-3-3.6-4.5-5.3c-0.3,5.4-1.2,10.8-2.7,16
	c-0.8-5-2.6-9.1-5.3-12.5c0-1.2-0.6-1.8-1.8-1.8c0.5-9.7-1.9-18.6-7.1-26.7c3.8-4.1,8.2-7,13.4-8.9c1.5,0.6,3,1.2,4.5,1.8
	c-1.8,1.6-1.8,2.8,0,3.6c5.8-2.3,11.1-1.4,16,2.7C142.8,651.8,145.2,667.5,143.5,684z"/>
<path class="st128" d="M601.6,646.6c2.6-0.1,5,0.5,7.1,1.8c1.2,0.6,2.4,1.2,3.6,1.8c2.4,5.6,4.2,11.5,5.3,17.8
	c0.3,17.2,0,34.5-0.9,51.7c-1,6.1-2.4,12.1-4.5,17.8c0,1.2-0.6,1.8-1.8,1.8c0-2.4,0-4.8,0-7.1c0-0.6,0-1.2,0-1.8
	c4.5-9.3,6.2-19.4,5.3-30.3c0.3-9-0.6-17.9-2.7-26.7c-2.4-3.6-5.3-6.5-8.9-8.9C603.9,658.3,603,652.4,601.6,646.6z"/>
<path class="st129" d="M797.7,657.3c-4.9,16.2-6.6,32.8-5.3,49.9c-0.6,0-1.2,0-1.8,0c-0.3-13.1,0-26.2,0.9-39.2
	C792.2,663.5,794.3,659.9,797.7,657.3z"/>
<path class="st130" d="M687.2,696.5c-2.9-8.8-6.2-17.7-9.8-26.7c-3-1.6-6.3-2.2-9.8-1.8c0-3.2-0.9-6.2-2.7-8.9
	c-0.6,7.1-1.2,14.3-1.8,21.4c-2.1,1-4.2,2.2-6.2,3.6c0.4,1,1,1.9,1.8,2.7c-1.1,5.2-2.3,10.3-3.6,15.2c-0.3-13.7,0-27.3,0.9-41
	c1.3-8,4.2-15.1,8.9-21.4c2.2,5.7,3.9,11.7,5.3,17.8c0.2-5.7,1.4-11.1,3.6-16c1.2,1.2,2.4,2.4,3.6,3.6c3.8-3.8,8.3-6.7,13.4-8.9
	c1.4,0.5,2.6,1.4,3.6,2.7c-3.6,1.1-6.6,3.2-8.9,6.2c-2.6,3.3-2.3,6.3,0.9,8.9C687.2,668,687.5,682.2,687.2,696.5z"/>
<path class="st131" d="M790.6,707.2c0.6,0,1.2,0,1.8,0c1.8,11.3,5.4,22,10.7,32.1c-7.6-2.5-10.9-7.8-9.8-16
	c-0.4,2.6-1.3,4.9-2.7,7.1c-1.5-8.3-2.7-16.6-3.6-25c-4.5-0.9-8.7-2.7-12.5-5.3c-4.7,2.8-9.1,5.8-13.4,8.9c-1.2,5.3-1.2,10.7,0,16
	c2.6,7,4.7,14.1,6.2,21.4c-7.6-10.5-11.8-22.3-12.5-35.7c-0.5-15.7,0.6-31.1,3.6-46.3c5.5-0.9,10.8-2.4,16-4.5
	c3.1-3.2,4.3-7.1,3.6-11.6c1.8,0,3.6,0,5.3,0c2,4.5,3.2,9.2,3.6,14.3c-1.8,0-3.6,0-5.3,0c0,1.8,0,3.6,0,5.3c3.7-0.1,6.1,1.7,7.1,5.3
	c-1.1,4.7-1.7,9.4-1.8,14.3C786.8,694.6,788,701.1,790.6,707.2z"/>
<path class="st132" d="M223.7,696.5c-1.2,0-2.4,0-3.6,0c0.9-6.3-0.3-11.9-3.6-16.9c-8.7-1.4-17-0.5-25,2.7
	c-0.9,13.7-1.5,27.3-1.8,41c0,1.2-0.6,1.8-1.8,1.8c0-9.5,0-19,0-28.5c0-8.9,0-17.8,0-26.7c1.5-5.2,3.3-10.6,5.3-16
	c5.5-2.9,11.4-4.4,17.8-4.5c-4.8-0.6-9.5-1.2-14.3-1.8c8-1.4,15.4-4,22.3-8c1.5,2.7,3.6,4.8,6.2,6.2
	C223.7,662.5,223.1,679.4,223.7,696.5z"/>
<path class="st133" d="M327.1,650.1c0,0.6,0,1.2,0,1.8c-1.1,0.2-2,0.8-2.7,1.8c-0.9,15.4-1.2,30.9-0.9,46.3
	c-1.2-6.3-2.4-12.8-3.6-19.6c-1.5,4.6-2.3,9.4-2.7,14.3c-2.4-1.2-4.2-3-5.3-5.3c-3.3,4.6-6.6,4.6-9.8,0c-1.9,3.7-4.5,6.7-8,8.9
	c0.7,4.1,1,7.9,0.9,11.6c-6.9,15.1-8.7,30.9-5.3,47.2c-1.1-0.2-2-0.8-2.7-1.8c-0.7-8.6-1.6-17.3-2.7-25.8c0.2-3,1.4-5.1,3.6-6.2
	c1.7-3.1,2.3-6.7,1.8-10.7c1.5-13.9,2.4-28.2,2.7-42.8c0.7-1.6,1.6-3.1,2.7-4.5c-2-6.1-2.3-12.3-0.9-18.7c1.8-4.5,5.1-7.5,9.8-8.9
	c0.6,1.2,1.2,2.4,1.8,3.6c-2.3,2.6-4.1,5.6-5.3,8.9c0.6,1.2,1.2,2.4,1.8,3.6c2.4-2.4,4.8-2.4,7.1,0c1.7-0.9,3.2-2,4.5-3.6
	c0.3-3.7,1.2-7.3,2.7-10.7c2.6,1.6,4.1,3.9,4.5,7.1c1.3-2.6,3.3-3.8,6.2-3.6C327.1,645.4,327.1,647.8,327.1,650.1z"/>
<path class="st134" d="M426.9,707.2c-2.1-10.6-4.8-21.3-8-32.1c-2.5,2.9-5.5,5.2-8.9,7.1c-2.8-2.4-6.1-3.6-9.8-3.6
	c0,4.5-0.6,9-1.8,13.4c-0.3,2.5-1.5,3.9-3.6,4.5c0.4-17.9,1-35.4,1.8-52.6c-6-2.3-5.4-5,1.8-8c3,3.2,6.6,4.1,10.7,2.7
	c-1.7-1.3-2-2.8-0.9-4.5c3.8,1.1,7.7,2.3,11.6,3.6c2.8,6.3,4.9,12.8,6.2,19.6C426.9,673.9,427.2,690.5,426.9,707.2z"/>
<path class="st135" d="M505.4,696.5c-1.3-5.1-2.5-10.4-3.6-16c-8.2-1.8-16.6-2.4-25-1.8c-0.4,6.5-2.2,12.5-5.3,17.8
	c0-6.5,0-13.1,0-19.6c0.9-8.3,2.7-16.6,5.3-25c9.4-1.8,18.9-2.4,28.5-1.8C505.4,665.6,505.4,681,505.4,696.5z"/>
<path class="st136" d="M601.6,646.6c1.3,5.8,2.2,11.7,2.7,17.8c3.6,2.4,6.6,5.3,8.9,8.9c2.1,8.8,3,17.7,2.7,26.7
	c-1.3-0.7-2.2-1.9-2.7-3.6c-0.6-5.3-1.2-10.7-1.8-16c-1-2.7-2.5-5.1-4.5-7.1c-2.5,3.8-5.8,6.8-9.8,8.9c-2.3-0.8-4.4-2-6.2-3.6
	c-3.2,3.2-5.6,6.8-7.1,10.7c1.2-12.5-0.8-24.4-6.2-35.7c-1.5-2.4-3.5-3.5-6.2-3.6c0-0.6,0-1.2,0-1.8c-0.4-2.3,0.2-4.1,1.8-5.3
	c4.7,1.6,9.4,3.4,14.3,5.3c0.6-0.9,1.2-1.8,1.8-2.7c-2.2-2.3-3.3-5-3.6-8c5.1,0.8,10.4,1.1,16,0.9
	C599.4,641.2,599.4,643.9,601.6,646.6z"/>
<path class="st137" d="M908.3,676.9c1.7,11.1,2.3,22.4,1.8,33.9c-0.9,13.2-5.1,25.1-12.5,35.7c0.4-2.9-0.2-5.6-1.8-8
	c4.6-1.7,7.3-4.9,8-9.8c0.9-7.1,1.2-14.2,0.9-21.4c1.8-7,2.4-14.4,1.8-22.3c-0.5-3.4-1.4-6.6-2.7-9.8c-2.8,3.1-6.4,4.9-10.7,5.3
	c-11-3.8-14.9-0.3-11.6,10.7c-1.5,1.6-3.3,2.2-5.3,1.8c0-5.9,0-11.9,0-17.8c-0.3-6,0-11.9,0.9-17.8c3.7-1.9,6-4.9,7.1-8.9
	c3,3.3,2.7,6.6-0.9,9.8c0.6,2.9,0.6,6.2,0,9.8c3.8-0.4,6.8-2.1,8.9-5.3c2,2.2,4.4,4,7.1,5.3c1.7-0.2,3.2-0.8,4.5-1.8
	C905.3,669.9,906.8,673.5,908.3,676.9z"/>
<path class="st138" d="M1006.3,676.9c15.9,2.7,31.3,6.9,46.3,12.5c3,2.4,5.9,4.8,8.9,7.1c-9.8,1.1-19.3-0.1-28.5-3.6
	c4.8-3.3,4.2-6-1.8-8c-3.6-0.9-7.2-0.6-10.7,0.9c-6.6-4.6-13.7-5.8-21.4-3.6c-7.2-0.9-13.2-4.2-17.8-9.8c-8.6-0.4-16.9-1.9-25-4.5
	c-0.4,2.1,0.2,3.9,1.8,5.3c4.1,1.7,7.6,4.1,10.7,7.1c-2.1,1.7-4.5,2.2-7.1,1.8c-0.3,1.9,0,3.7,0.9,5.3c3.7,1.1,5.8,3.5,6.2,7.1
	c-3.9-0.4-6.8-2.2-8.9-5.3c-2.9-4.7-5.9-9.5-8.9-14.3c0-6.4-0.3-12.9-0.9-19.6c0.6-0.6,1.2-1.2,1.8-1.8c3.7,4.7,8.1,5.9,13.4,3.6
	c2.9-5.3,1.7-9.1-3.6-11.6c2.9-0.9,5.9-1.2,8.9-0.9C972.4,664.3,984.3,675,1006.3,676.9z"/>
<path class="st139" d="M1150.7,675.1c0,10.1,0,20.2,0,30.3c0,1.2,0,2.4,0,3.6c-1.5-10.4-3-21.1-4.5-32.1c-6,6.3-12.5,6.9-19.6,1.8
	c-2.4,0.5-4.1,1.6-5.3,3.6c-1.4,12.8-2.8,25.2-4.5,37.4c0-3,0-5.9,0-8.9c-0.6-18.1,0.9-35.9,4.5-53.5c8.2-2.2,16.8-3.3,25.8-3.6
	c0.2,4-0.4,7.8-1.8,11.6C1145.7,669.7,1147.5,672.9,1150.7,675.1z"/>
<path class="st140" d="M107.8,673.3c0,1.2,0,2.4,0,3.6c-23.4-1-46.6,0.8-69.5,5.3C60.6,674.5,83.8,671.5,107.8,673.3z"/>
<path class="st141" d="M327.1,651.9c-2.3,16.9-2.3,33.5,0,49.9c0,0.6,0,1.2,0,1.8c0,1.8,0,3.6,0,5.3c1.1,14.8,1.7,29.7,1.8,44.6
	c0,2.4,0,4.8,0,7.1c0.4,2.3-0.2,4.1-1.8,5.3c0.6-6.3,0-12.3-1.8-17.8c0.4-16.1-0.2-32.1-1.8-48.1c-0.3-15.5,0-30.9,0.9-46.3
	C325.1,652.7,326,652.1,327.1,651.9z"/>
<path class="st142" d="M790.6,616.3c-6.6,8.9-13.7,17.3-21.4,25c-5.3,6.8-8.9,14.5-10.7,23.2c-2.9,15.2-4.1,30.7-3.6,46.3
	c-1.8-9.2-2.4-18.7-1.8-28.5c1.4-20,8.2-37.8,20.5-53.5C779.1,624.2,784.8,620,790.6,616.3z"/>
<path class="st143" d="M1291.5,675.1c-5.5,0.9-10.8,2.7-16,5.3c-15.4-2-30.9-1.7-46.3,0.9c-3.5,3.4-7.6,4.9-12.5,4.5
	c1-2.3,2.8-3.8,5.3-4.5C1244.8,675.7,1268,673.6,1291.5,675.1z"/>
<path class="st144" d="M107.8,676.9c-2,1.7-3.8,3.8-5.3,6.2c-11,1.3-22,1-33-0.9c-14.2,3.2-28.2,5.6-41.9,7.1
	c2.9-3.3,6.5-5.6,10.7-7.1C61.2,677.6,84.4,675.8,107.8,676.9z"/>
<path class="st145" d="M109.6,664.4c1.2,0,1.8,0.6,1.8,1.8c1.2,8.9-1.2,16.6-7.1,23.2c0.4,1,1,1.9,1.8,2.7
	c-16.4,0.1-32.4,1.6-48.1,4.5c0,1.8,0,3.6,0,5.3c-2.4,0-4.8,0-7.1,0c0,2.4,0,4.8,0,7.1c0,1.2-0.6,1.8-1.8,1.8
	c-2.8,0.8-4.9,2.6-6.2,5.3c-1.5,9.2-0.6,18.1,2.7,26.7c-2.9-1.4-4-3.8-3.6-7.1c-2.4,0.3-4.4-0.3-6.2-1.8c-1.1-4.7-3.2-8.8-6.2-12.5
	c5.6-10.7,4.1-12.4-4.5-5.3c-1.6,4.1-3.1,8.3-4.5,12.5c-1.2-3.6-2.4-7.1-3.6-10.7c-2.7,7.5-4.5,15.2-5.3,23.2
	c-2.1-8.6-2.3-17.5-0.9-26.7c1.4-3.8,4-6.2,8-7.1c1.1-7,4.1-12.9,8.9-17.8c13.7-1.5,27.7-3.9,41.9-7.1c10.9,1.9,21.9,2.2,33,0.9
	c1.5-2.4,3.3-4.5,5.3-6.2c0-1.2,0-2.4,0-3.6C109.5,670.8,110.1,667.8,109.6,664.4z"/>
<path class="st146" d="M571.3,650.1c2.7,0,4.8,1.2,6.2,3.6c5.4,11.2,7.5,23.1,6.2,35.7c0.3,7.2,0,14.3-0.9,21.4
	c-0.4,3.2-1.8,5.6-4.5,7.1c1.9-16.6,2.2-33.2,0.9-49.9c-0.5-1.6-1.4-2.8-2.7-3.6C576.9,658.8,575.1,654.1,571.3,650.1z"/>
<path class="st147" d="M615.9,700.1c0.9,10.9-0.9,21-5.3,30.3c0.8-8.7-0.4-17-3.6-25c-1.1-4.5,0.1-8.6,3.6-12.5
	c-0.7-2.2-2.2-3.4-4.5-3.6c-4.5,4.5-8.4,9.6-11.6,15.2c-2.9,0.5-5.5,1.4-8,2.7c-2.7,8.2-5.4,16.5-8,25c-3.6,5.4-8.4,9.6-14.3,12.5
	c3.7-3.7,6.6-7.8,8.9-12.5c2.8-4.2,4.6-8.9,5.3-14.3c2.6-1.5,4.1-3.9,4.5-7.1c0.9-7.1,1.2-14.2,0.9-21.4c1.5-3.9,3.9-7.5,7.1-10.7
	c1.9,1.6,3.9,2.8,6.2,3.6c4-2.2,7.3-5.1,9.8-8.9c1.9,2.1,3.4,4.5,4.5,7.1c0.6,5.3,1.2,10.7,1.8,16
	C613.7,698.1,614.6,699.3,615.9,700.1z"/>
<path class="st148" d="M861.9,648.4c4.1,2.6,7.3,6.2,9.8,10.7c1.2,5.7,2.7,11,4.5,16c0,5.9,0,11.9,0,17.8c0.4,9-1.4,17.3-5.3,25
	c1.9-15.4,2.2-30.9,0.9-46.3C870.3,662.9,867.1,655.2,861.9,648.4z"/>
<path class="st149" d="M1329,653.7c1.6,1.3,2.2,3,1.8,5.3c1.6,13.1,1.6,26.2,0,39.2c0,3.6,0,7.1,0,10.7c0,0.6,0,1.2,0,1.8
	c-0.6,0-1.2,0-1.8,0C1329,691.7,1329,672.7,1329,653.7z"/>
<path class="st150" d="M220.1,696.5c0,3.6,0,7.1,0,10.7c-4.7-3-9.5-5.9-14.3-8.9c-4.2,3.3-8.7,6.3-13.4,8.9c-0.3,5.7-1.2,11-2.7,16
	c0.3-13.7,0.9-27.3,1.8-41c7.9-3.2,16.3-4.1,25-2.7C219.9,684.6,221.1,690.2,220.1,696.5z"/>
<path class="st151" d="M505.4,696.5c0,10.1,0,20.2,0,30.3c-1.5-7.4-2.7-15.2-3.6-23.2c-8.3-0.3-16.7,0-25,0.9
	c-0.9,0.9-1.8,1.8-2.7,2.7c-0.3,8.6-1.2,17-2.7,25c0-11.9,0-23.8,0-35.7c3.2-5.4,5-11.3,5.3-17.8c8.4-0.6,16.7,0,25,1.8
	C502.9,686,504,691.4,505.4,696.5z"/>
<path class="st152" d="M1033,692.9c-10.6,1.9-20.7,4.6-30.3,8c7,3.6,13.8,3.3,20.5-0.9c7.7-0.2,8,1.6,0.9,5.3
	c1.2,0.6,2.4,1.2,3.6,1.8c5.4-1.8,10.4-4.2,15.2-7.1c0.9,0.9,1.8,1.8,2.7,2.7c-3,3-5.9,5.9-8.9,8.9c1.4,2,2.6,4.1,3.6,6.2
	c-3.2-2.2-6.7-3.4-10.7-3.6c-4.2-1.2-8.3-2.4-12.5-3.6c-0.8-1.7-2-3.2-3.6-4.5c-5.3-0.9-10.7-1.2-16-0.9
	c-8.9-5.2-18.4-8.8-28.5-10.7c-0.5-3.7-2.5-6.1-6.2-7.1c-0.9-1.7-1.2-3.5-0.9-5.3c2.6,0.5,5-0.1,7.1-1.8c-3.1-3.1-6.6-5.5-10.7-7.1
	c-1.6-1.5-2.2-3.3-1.8-5.3c8,2.6,16.4,4.1,25,4.5c4.6,5.6,10.6,8.9,17.8,9.8c7.7-2.2,14.8-1,21.4,3.6c3.5-1.5,7.1-1.8,10.7-0.9
	C1037.2,686.9,1037.8,689.6,1033,692.9z"/>
<path class="st153" d="M904.7,707.2c-4.4-1.9-8.6-4.3-12.5-7.1c-4,1.1-5.1,3.2-3.6,6.2c-2.9,1.5-3.5,3.3-1.8,5.3
	c-4,3.3-8.5,6-13.4,8c0.1,7.8-3.1,13.1-9.8,16c2.4-6,4.8-11.9,7.1-17.8c4-7.6,5.8-16,5.3-25c2.1,0.4,3.9-0.2,5.3-1.8
	c-3.3-11,0.6-14.5,11.6-10.7c4.3-0.5,7.9-2.3,10.7-5.3c1.3,3.2,2.1,6.4,2.7,9.8C907.1,692.8,906.5,700.2,904.7,707.2z"/>
<path class="st154" d="M1293.3,725c0.5,2.9-0.1,5.2-1.8,7.1c0-11.3,0-22.6,0-33.9c-15.2-2.2-30.6-2.2-46.3,0
	c9.4-2.7,18.9-5.4,28.5-8c6-1.3,12-1,17.8,0.9C1293.3,702.4,1293.9,713.7,1293.3,725z"/>
<path class="st155" d="M1325.4,668c0.8,14.6,2,28.8,3.6,42.8c0,14.3,0,28.5,0,42.8c-0.6,0-1.2,0-1.8,0c-1-13.1-1.6-26.1-1.8-39.2
	c0.3-7.7,0-15.5-0.9-23.2c-0.7-2.1-1.9-3.9-3.6-5.3c-0.3,3.9-1.5,7.5-3.6,10.7c-1.6-2.2-3.1-4.6-4.5-7.1c-1.7,0.9-3.2,2-4.5,3.6
	c-0.4-4.1-1.9-7.6-4.5-10.7c-0.9,5.1-3.9,7.4-8.9,7.1c0.6,12.2,0,24.1-1.8,35.7c0.6-11.4,0-22.6-1.8-33.9
	c-5.8-1.9-11.8-2.2-17.8-0.9c-9.7,2.7-19.2,5.3-28.5,8c-3.7,2.8-7.9,5.1-12.5,7.1c-1.3,2.2-1.9,4.6-1.8,7.1c0,0.6,0,1.2,0,1.8
	c-2.4,1.9-4.2,4.3-5.3,7.1c-0.2-4.6,1-8.8,3.6-12.5c-0.7-2.5-2.1-4.3-4.5-5.3c-1.2,2.4-2.4,2.4-3.6,0c-2-8-6.2-9.2-12.5-3.6
	c-1.4-0.3-2.6-0.9-3.6-1.8c-0.7,7-4.6,11.2-11.6,12.5c4-11.8,11.8-20.1,23.2-25c4.9,0.4,9-1.1,12.5-4.5c15.5-2.6,30.9-2.9,46.3-0.9
	c5.2-2.6,10.6-4.4,16-5.3c1.7-1.9,2.3-4.3,1.8-7.1c3.4,0.4,5.7,2.2,7.1,5.3c3.6-3.3,7.7-5.1,12.5-5.3c-0.3-16,2.3-16.6,8-1.8
	C1322.1,667.5,1323.6,668.1,1325.4,668z"/>
<path class="st156" d="M143.5,684c1.5,19.6,2.1,39.2,1.8,58.8c0,3.6,0,7.1,0,10.7c-0.6,0-1.2,0-1.8,0c-0.5-19.2-2.3-38.2-5.3-57
	c-1.2,2.4-2.4,4.8-3.6,7.1c-1.3-1.6-2.2-3.3-2.7-5.3c-6.2,4.1-11.8,8.9-16.9,14.3c-1.4,7.1-3.7,13.6-7.1,19.6c0-11.3,0-22.6,0-33.9
	c-14.4-0.5-28.6,0.4-42.8,2.7c-5,2.2-9.8,4.9-14.3,8c0-2.4,0-4.8,0-7.1c2.4,0,4.8,0,7.1,0c0-1.8,0-3.6,0-5.3
	c15.7-2.8,31.8-4.3,48.1-4.5c-0.8-0.7-1.4-1.6-1.8-2.7c6-6.6,8.3-14.3,7.1-23.2c2.8,3.3,4.6,7.5,5.3,12.5c1.5-5.3,2.4-10.6,2.7-16
	c1.5,1.8,3,3.6,4.5,5.3c1.2-5.9,2.4-11.9,3.6-17.8c1.2,3.8,2.6,7.4,4.5,10.7c0.6-1.8,1.2-3.6,1.8-5.3c1.5,4.1,2.7,8.2,3.6,12.5
	c2.1-3.2,3.3-6.7,3.6-10.7C141.1,666.5,142,675.4,143.5,684z"/>
<path class="st157" d="M687.2,696.5c0,9.5,0,19,0,28.5c-2.8-5.4-4.5-11.4-5.3-17.8c-1.5-1.6-3.3-2.2-5.3-1.8c0-1.8,0-3.6,0-5.3
	c-1.8,0-3.6,0-5.3,0c-0.9,6.8-2.7,6.8-5.3,0c-6.6,4.3-8.9,10-7.1,16.9c-1.1,2.9-2.3,5.6-3.6,8c0-7.7,0-15.5,0-23.2
	c1.3-4.9,2.4-9.9,3.6-15.2c-0.8-0.7-1.4-1.6-1.8-2.7c2-1.4,4.1-2.5,6.2-3.6c0.6-7.1,1.2-14.3,1.8-21.4c1.8,2.7,2.7,5.7,2.7,8.9
	c3.5-0.4,6.8,0.2,9.8,1.8C681,678.8,684.3,687.7,687.2,696.5z"/>
<path class="st158" d="M690.8,660.8c0,39.2,0,78.4,0,117.7c-13.1,2.4-26.1,2.4-39.2,0c0.6,0,1.2,0,1.8,0c11.9,0,23.8,0,35.7,0
	c0-27.3,0-54.7,0-82C688.4,684.3,689,672.4,690.8,660.8z"/>
<path class="st159" d="M902.9,650.1c4.6,7.5,7.3,15.8,8,25c1.5,12.2,1.2,24.1-0.9,35.7c0.5-11.4-0.1-22.7-1.8-33.9
	C907.3,667.8,905.5,658.8,902.9,650.1z"/>
<path class="st160" d="M968.9,694.7c10.2,1.9,19.7,5.5,28.5,10.7c-8-1.2-15.7-3.2-23.2-6.2C971.6,698.5,969.9,697,968.9,694.7z"/>
<path class="st161" d="M1291.5,698.3c-12.8-0.6-25.3,0-37.4,1.8c-5.3-0.6-9.5,1.2-12.5,5.3c-4,1-7,3.4-8.9,7.1c-0.6,0-1.2,0-1.8,0
	c-0.1-2.5,0.5-4.9,1.8-7.1c4.6-2,8.7-4.4,12.5-7.1C1260.9,696.1,1276.3,696.1,1291.5,698.3z"/>
<path class="st162" d="M1325.4,714.3c-4.4,1.5-8.2,0.3-11.6-3.6c-3.6,6.9-7.5,6.9-11.6,0c-1.2,0.6-2.4,1.2-3.6,1.8
	c-0.4,6.9-0.4,14,0,21.4c-4.4,1.2-8.6,3-12.5,5.3c0.9-3.1,2.7-5.5,5.3-7.1c1.7-1.9,2.3-4.3,1.8-7.1c1.8-11.5,2.4-23.4,1.8-35.7
	c5,0.3,8-2.1,8.9-7.1c2.5,3.1,4,6.6,4.5,10.7c1.2-1.5,2.7-2.7,4.5-3.6c1.3,2.5,2.8,4.9,4.5,7.1c2.1-3.2,3.3-6.7,3.6-10.7
	c1.6,1.5,2.8,3.3,3.6,5.3C1325.4,698.8,1325.7,706.6,1325.4,714.3z"/>
<path class="st163" d="M1033,692.9c9.2,3.4,18.7,4.6,28.5,3.6c1.2,2.4,1.2,4.5,0,6.2c1.6,0.7,3.1,1.6,4.5,2.7
	c0.4,3.1,1.3,6.1,2.7,8.9c1-0.4,1.9-1,2.7-1.8c0.4,2.9,1.9,4.7,4.5,5.3c0.6,7.5,0,14.6-1.8,21.4c0-6.2-1.2-12.1-3.6-17.8
	c-5.1-4.2-9.8-8.6-14.3-13.4c-1.7-1.1-3.2-0.8-4.5,0.9c-1.8,4.9-4.5,9-8,12.5c0-2.4-1.2-3.6-3.6-3.6c-0.9-2.2-2.1-4.3-3.6-6.2
	c3-3,5.9-5.9,8.9-8.9c-0.9-0.9-1.8-1.8-2.7-2.7c-4.7,2.9-9.8,5.3-15.2,7.1c-1.2-0.6-2.4-1.2-3.6-1.8c7.1-3.7,6.8-5.5-0.9-5.3
	c-6.7,4.2-13.5,4.5-20.5,0.9C1012.4,697.5,1022.5,694.8,1033,692.9z"/>
<path class="st164" d="M426.9,707.2c0,5.9,0,11.9,0,17.8c0,13.1,0,26.1,0,39.2c-3.2,0.5-6.2-0.1-8.9-1.8c1.5-1.6,3.3-2.2,5.3-1.8
	c-0.4-7.5-1.9-14.6-4.5-21.4c-0.6,1.2-1.2,2.4-1.8,3.6c-6.2-7.6-9.8-6.4-10.7,3.6c-2.1-3.8-3.3-7.9-3.6-12.5
	c-0.7,0.8-1.6,1.4-2.7,1.8c-1.4-2.2-2.3-4.6-2.7-7.1c-2.6,15.7-3.5,31.8-2.7,48.1c-1.8-26.4-2.4-53.2-1.8-80.2c0.6,0,1.2,0,1.8,0
	c2-0.5,3.2-2,3.6-4.5c1.2-4.4,1.8-8.8,1.8-13.4c3.7,0,7,1.1,9.8,3.6c3.4-1.9,6.4-4.3,8.9-7.1C422.2,685.9,424.9,696.6,426.9,707.2z"
	/>
<path class="st165" d="M610.5,730.4c0,0.6,0,1.2,0,1.8c-1.9-0.2-3.1-1.4-3.6-3.6c3.1-6.1,2.2-11.5-2.7-16c-1.5,3.6-3,7.1-4.5,10.7
	c-4.6,1.2-8.8,3.3-12.5,6.2c-1.5,1.8-2.1,3.9-1.8,6.2c-3,0-5.4-1.2-7.1-3.6c2.6-8.5,5.3-16.8,8-25c2.5-1.3,5.2-2.2,8-2.7
	c3.2-5.6,7.1-10.6,11.6-15.2c2.3,0.2,3.8,1.4,4.5,3.6c-3.5,3.9-4.7,8-3.6,12.5C610.2,713.4,611.4,721.7,610.5,730.4z"/>
<path class="st166" d="M997.4,705.4c5.4-0.3,10.7,0,16,0.9c1.6,1.3,2.8,2.7,3.6,4.5c-3.4-1.2-7-1.8-10.7-1.8
	C1003.3,707.8,1000.4,706.6,997.4,705.4z"/>
<path class="st167" d="M1150.7,709c0,10.7,0,21.4,0,32.1c-2.1-10.6-4.5-21.3-7.1-32.1c-1.1,6-3.4,11.3-7.1,16
	c-2-5.3-5.6-8.8-10.7-10.7c-3.3,1.2-5.4,3.6-6.2,7.1c-0.9,11.9-1.2,23.8-0.9,35.7c0,3.6,0,7.1,0,10.7c0,2.4,0,4.8,0,7.1
	c-1.8-18.1-2.4-36.5-1.8-55.3c1.6-12.2,3.1-24.7,4.5-37.4c1.2-1.9,3-3.1,5.3-3.6c7.1,5.1,13.6,4.6,19.6-1.8
	C1147.7,687.8,1149.2,698.5,1150.7,709z"/>
<path class="st168" d="M220.1,696.5c1.2,0,2.4,0,3.6,0c0,27.3,0,54.7,0,82c-11.6,0.6-22.9,0-33.9-1.8c10.7,0,21.4,0,32.1,0
	c0.2-23.2-0.4-46.4-1.8-69.5C220.1,703.6,220.1,700.1,220.1,696.5z"/>
<path class="st169" d="M323.5,700.1c1.6,16,2.2,32,1.8,48.1c0.6,9.9,0,19.4-1.8,28.5c-0.2-17.2-0.8-34.5-1.8-51.7
	c-2.4,0-4.8,0-7.1,0c0.6-3.6,0.6-6.9,0-9.8c-2-1.3-3.8-1-5.3,0.9c-3,6.8-5.4,6.2-7.1-1.8c-2.1,6.6-5.4,12.6-9.8,17.8
	c-1.8,15.1-0.9,30,2.7,44.6c-2.3-0.5-4.1-1.7-5.3-3.6c0-0.6,0-1.2,0-1.8c0-4.8,0-9.5,0-14.3c-3.3-16.4-1.5-32.1,5.3-47.2
	c0.1-3.7-0.2-7.5-0.9-11.6c3.5-2.2,6.2-5.2,8-8.9c3.2,4.6,6.5,4.6,9.8,0c1.2,2.4,3,4.2,5.3,5.3c0.3-4.9,1.2-9.6,2.7-14.3
	C321.2,687.2,322.4,693.8,323.5,700.1z"/>
<path class="st170" d="M1061.6,696.5c8.4,4.8,13.1,11.9,14.3,21.4c-2.6-0.7-4-2.5-4.5-5.3c-0.7,0.8-1.6,1.4-2.7,1.8
	c-1.4-2.8-2.3-5.8-2.7-8.9c-1.3-1.1-2.8-2-4.5-2.7C1062.8,701,1062.8,698.9,1061.6,696.5z"/>
<path class="st171" d="M220.1,707.2c1.4,23.1,2,46.3,1.8,69.5c-10.7,0-21.4,0-32.1,0c-1.8-16.9-2.4-34.1-1.8-51.7
	c1.2,0,1.8-0.6,1.8-1.8c1.5-5,2.4-10.3,2.7-16c4.7-2.6,9.2-5.6,13.4-8.9C210.7,701.3,215.4,704.2,220.1,707.2z"/>
<path class="st172" d="M505.4,726.8c0,1.2,0,2.4,0,3.6c-1.1,0.2-2,0.8-2.7,1.8c-8.7-3.4-17.9-4.6-27.6-3.6
	c-1.6,15.6-2.2,31-1.8,46.3c-1.8-13.9-2.4-28.2-1.8-42.8c1.5-8,2.4-16.3,2.7-25c0.9-0.9,1.8-1.8,2.7-2.7c8.3-0.9,16.6-1.2,25-0.9
	C502.7,711.6,503.8,719.4,505.4,726.8z"/>
<path class="st173" d="M143.5,753.5c-4-5.3-7.3-13.1-9.8-23.2c-3.6,1.1-6.9,2.9-9.8,5.3c-1.2-3.6-2.4-7.1-3.6-10.7
	c-1.4,6.1-3.2,12-5.3,17.8c-3.1,2.2-5.8,1.6-8-1.8c-2.1,1.9-3,4.3-2.7,7.1c-13.8,2.8-27.5,5.8-41,8.9c-4.6-3.7-10-6.1-16-7.1
	c-2.1,0.7-3.9,1.9-5.3,3.6c-2.4-2.7-5.4-3.9-8.9-3.6c0-1.8,0-3.6,0-5.3c-2.4,0-4.8,0-7.1,0c0.3-3,0-6-0.9-8.9
	c-1.2-2.4-2.4-2.4-3.6,0c-3.2,6.8-4.7,13.9-4.5,21.4c-2.8-4.8-4.6-10.2-5.3-16c0.8-8,2.6-15.7,5.3-23.2c1.2,3.6,2.4,7.1,3.6,10.7
	c1.4-4.2,2.9-8.4,4.5-12.5c8.6-7.1,10.1-5.3,4.5,5.3c3,3.7,5.1,7.8,6.2,12.5c1.8,1.5,3.9,2.1,6.2,1.8c-0.5,3.4,0.7,5.7,3.6,7.1
	c-0.2,1.8,0.4,3.3,1.8,4.5c4,1.7,8.2,2.6,12.5,2.7c11.1,2.6,21.8,1.4,32.1-3.6c8.7-1,14-5.7,16-14.3c3.4-6,5.8-12.5,7.1-19.6
	c5.1-5.4,10.8-10.1,16.9-14.3c0.4,2,1.3,3.8,2.7,5.3c1.2-2.4,2.4-4.8,3.6-7.1C141.2,715.3,143,734.3,143.5,753.5z"/>
<path class="st174" d="M1225.6,721.4c0.6,6.7,1.8,13.2,3.6,19.6c-1.8,0.2-3.3-0.4-4.5-1.8c-0.3-3.7-1.2-7.3-2.7-10.7
	c-1.2,1.2-2.4,2.4-3.6,3.6c-3.9-3.3-7.4-6.8-10.7-10.7c-1.7,2.8-2.3,5.7-1.8,8.9c-6.5-0.1-10.1,3.2-10.7,9.8
	c1.9,4.6,3.7,9.1,5.3,13.4c2.2-0.1,4,0.8,5.3,2.7c-2.2,1.6-2.2,3.1,0,4.5c2.2,1.3,4.6,1.9,7.1,1.8c0.9,4.5,2.7,8.7,5.3,12.5
	c-4.1-0.8-7.6-2.6-10.7-5.3c-1.2-2.4-3-4.2-5.3-5.3c-1.7-2.6-3.8-5-6.2-7.1c-2.3-15.4-3.2-30.8-2.7-46.3c7-1.3,10.9-5.4,11.6-12.5
	c1,0.9,2.2,1.5,3.6,1.8c6.3-5.6,10.4-4.4,12.5,3.6c1.2,2.4,2.4,2.4,3.6,0c2.3,1.1,3.8,2.8,4.5,5.3
	C1226.6,712.7,1225.4,716.8,1225.6,721.4z"/>
<path class="st175" d="M1075.8,717.9c1.2,3.5,1.8,7.4,1.8,11.6c0.3,6.2-0.9,11.8-3.6,16.9c0-2.4,0-4.8,0-7.1
	C1075.8,732.5,1076.4,725.4,1075.8,717.9z"/>
<path class="st176" d="M27.6,689.4c-4.8,4.9-7.8,10.9-8.9,17.8c-4,0.9-6.7,3.3-8,7.1c-1.5,9.2-1.2,18.2,0.9,26.7
	c0.8,5.9,2.5,11.2,5.3,16c8.3,3.5,14.2,9.5,17.8,17.8c-5.3-2.1-10.1-5-14.3-8.9c-3.7-3.7-6.6-7.8-8.9-12.5
	c-4.7-11.4-6.5-23.2-5.3-35.7C10,705.6,17.1,696.1,27.6,689.4z"/>
<path class="st177" d="M976,735.7c-1.2-0.6-2.4-1.2-3.6-1.8c0-2.4,0-4.8,0-7.1c-10.7,0-21.4,0-32.1,0c0,4.2,0,8.3,0,12.5
	c-2.7-4.2-3.9-8.9-3.6-14.3c12.5,0,25,0,37.4,0C974.2,728.7,974.8,732.3,976,735.7z"/>
<path class="st178" d="M972.4,733.9c-2.6-1.8-4.9-1.2-7.1,1.8c-1.6-1.5-2.2-3.3-1.8-5.3c-7,1.4-14.2,2-21.4,1.8
	c-1,6.9,1.4,12.3,7.1,16c1.3,5.1,3,9.8,5.3,14.3c-7.6-5.9-12.4-13.6-14.3-23.2c0-4.2,0-8.3,0-12.5c10.7,0,21.4,0,32.1,0
	C972.4,729.2,972.4,731.5,972.4,733.9z"/>
<path class="st179" d="M1150.7,741.1c0.6,11.4,0,22.6-1.8,33.9c-10.3,2.3-20.4,2.3-30.3,0c0-2.4,0-4.8,0-7.1
	c1.3,1.8,2.5,3.9,3.6,6.2c8.4,1.4,16.7,1.1,25-0.9c2.6-12.3,1.4-24.2-3.6-35.7c-1.2,1.8-2.4,3.6-3.6,5.3c-1.8-2.4-4.2-3.6-7.1-3.6
	c-1.2-7.1-2.4-7.1-3.6,0c-2.6-0.5-5,0.1-7.1,1.8c-1,5.6-2.2,10.9-3.6,16c-0.3-11.9,0-23.8,0.9-35.7c0.9-3.5,2.9-5.9,6.2-7.1
	c5.1,1.9,8.7,5.4,10.7,10.7c3.7-4.7,6.1-10.1,7.1-16C1146.2,719.8,1148.5,730.5,1150.7,741.1z"/>
<path class="st180" d="M1329,710.7c0.6,0,1.2,0,1.8,0c1.2,14.2,1.2,28.5,0,42.8c-0.6,0-1.2,0-1.8,0C1329,739.3,1329,725,1329,710.7z
	"/>
<path class="st181" d="M803.1,739.3c0,1.2,0,2.4,0,3.6c-6.3,0.3-10.4-2.9-12.5-9.8c-2.5-1.1-4.9-0.8-7.1,0.9c-2-2.3-2-4.7,0-7.1
	c-1.5-1.6-3.3-2.2-5.3-1.8c-1.3,8.9-2.5,8.3-3.6-1.8c-6.4-0.2-8.4,2.8-6.2,8.9c5.7,1.5,6,5.1,0.9,10.7c1.6,1.9,3.4,1.9,5.3,0
	c0.9,6.6,3.3,12.5,7.1,17.8c9.6,3.9,18.5,8.3,26.7,13.4c13.1,1.2,26.1,1.2,39.2,0c-1.5-1.8-2.1-3.9-1.8-6.2
	c5.9-0.9,10.6,0.9,14.3,5.3c4.8-1.9,9.6-3.7,14.3-5.3c0.3-2.4-0.3-4.4-1.8-6.2c-3.9-0.3-7.5-1.5-10.7-3.6c4.7-0.9,9.5-1.2,14.3-0.9
	c0,1.8,0,3.6,0,5.3c2.4,0,4.8,0,7.1,0c0.3-2.4-0.3-4.4-1.8-6.2c6-0.2,6.9-2.2,2.7-6.2c-3.4-5.8-7.2-6.4-11.6-1.8
	c-3.2-2.2-5-5.2-5.3-8.9c-1.8,0-3.6,0-5.3,0c-0.1,6.8-3.6,10.1-10.7,9.8c-1.2,1.8-2.4,3.6-3.6,5.3c-7.1,1.2-14.3,1.2-21.4,0
	c-1.6-0.5-2.8-1.4-3.6-2.7c5.7,0.6,11.1,0,16-1.8c10.5-1.1,18.8-5.8,25-14.3c6.7-2.9,9.9-8.3,9.8-16c4.9-2,9.3-4.7,13.4-8
	c-1.7-2-1.1-3.8,1.8-5.3c-1.6-3.1-0.4-5.1,3.6-6.2c3.9,2.8,8.1,5.2,12.5,7.1c0.3,7.2,0,14.3-0.9,21.4c-0.7,4.9-3.4,8.1-8,9.8
	c1.6,2.4,2.2,5.1,1.8,8c-5.3,10.6-13,18.9-23.2,25c-3.2,2-6.8,3.2-10.7,3.6c-21.4,4.5-42.8,4.5-64.2,0c-6.4-2-12.4-5-17.8-8.9
	c-3-4.2-6.5-7.7-10.7-10.7c-1.2-3-2.4-5.9-3.6-8.9c-1.5-7.3-3.6-14.4-6.2-21.4c-1.2-5.3-1.2-10.7,0-16c4.2-3.2,8.7-6.1,13.4-8.9
	c3.8,2.6,8,4.4,12.5,5.3c0.9,8.3,2.1,16.7,3.6,25c1.4-2.2,2.3-4.6,2.7-7.1C792.2,731.4,795.5,736.8,803.1,739.3z"/>
<path class="st182" d="M1325.4,714.3c0.2,13.1,0.8,26.2,1.8,39.2c-1.3-5.5-3.4-10.8-6.2-16c-0.6,1.2-1.2,2.4-1.8,3.6
	c-2.1-3-4.2-5.9-6.2-8.9c-0.1,2.6-1.9,4.9-5.3,7.1c-1.4-3.5-3.8-5-7.1-4.5c-4.4,3.4-7.4,7.9-8.9,13.4c-4.2,2.2-8.3,2.2-12.5,0
	c-12.9,7.4-26.6,8.6-41,3.6c-4.4,3-9.2,3.9-14.3,2.7c1.2-0.6,2.4-1.2,3.6-1.8c-4.5-5.4-8.6-11-12.5-16.9c-1.6,3.1-2.8,6.4-3.6,9.8
	c4.3,4,3.1,6.6-3.6,8c-1.6-1.5-2.2-3.3-1.8-5.3c-1.8,0-3.6,0-5.3,0c0,1.8,0,3.6,0,5.3c-1.6-4.3-3.4-8.8-5.3-13.4
	c0.6-6.6,4.2-9.9,10.7-9.8c-0.5-3.2,0.1-6.2,1.8-8.9c3.3,3.9,6.8,7.4,10.7,10.7c1.2-1.2,2.4-2.4,3.6-3.6c1.4,3.4,2.3,7,2.7,10.7
	c1.2,1.3,2.7,1.9,4.5,1.8c1.2,0,2.4,0,3.6,0c0,1.2,0.6,1.8,1.8,1.8c1.4,3.1,3.7,4.9,7.1,5.3c1.4,1.4,3.1,2.3,5.3,2.7
	c14.5,0.8,27.5-3.1,39.2-11.6c3.9-2.3,8-4.1,12.5-5.3c-0.4-7.4-0.4-14.5,0-21.4c1.2-0.6,2.4-1.2,3.6-1.8c4.1,6.9,8,6.9,11.6,0
	C1317.2,714.6,1321,715.8,1325.4,714.3z"/>
<path class="st183" d="M49,710.7c-8.9,16.6-5.3,29.7,10.7,39.2c-4.3,0-8.5-0.9-12.5-2.7c-1.3-1.2-1.9-2.7-1.8-4.5
	c-3.2-8.6-4.1-17.6-2.7-26.7C44.1,713.3,46.2,711.5,49,710.7z"/>
<path class="st184" d="M1193.5,710.7c-0.5,15.5,0.4,31,2.7,46.3c2.5,2.1,4.5,4.5,6.2,7.1c-3.4-1-6.3-2.8-8.9-5.3
	c-1.1-6.2-2.3-12.1-3.6-17.8c0-7.7,0-15.5,0-23.2C1190.8,715.2,1192,712.8,1193.5,710.7z"/>
<path class="st185" d="M186.3,696.5c0.6,0,1.2,0,1.8,0c0,9.5,0,19,0,28.5c-0.6,17.6,0,34.8,1.8,51.7c11,1.8,22.2,2.4,33.9,1.8
	c0.6,0,1.2,0,1.8,0c-13.1,2.4-26.1,2.4-39.2,0C186.3,751.2,186.3,723.8,186.3,696.5z"/>
<path class="st186" d="M1230.9,714.3c-0.4,9,0.2,17.9,1.8,26.7c-1.2,0-2.4,0-3.6,0c-1.8-6.4-2.9-12.9-3.6-19.6
	C1226.7,718.6,1228.5,716.3,1230.9,714.3z"/>
<path class="st187" d="M687.2,725c0,17.2,0,34.5,0,51.7c-11,0.6-21.7,0-32.1-1.8c9.8-0.7,19.9-0.7,30.3,0c0.3-6,0-11.9-0.9-17.8
	c-1.4-2.4-3.5-3.9-6.2-4.5c2.4-6,1.5-11.6-2.7-16.9c-3,4.5-5.4,3.9-7.1-1.8c-2.3,6.5-4.3,13-6.2,19.6c-1.2-0.6-2.4-1.2-3.6-1.8
	c-1.2,2-2.4,3.7-3.6,5.3c0-10.7,0-21.4,0-32.1c1.3-2.5,2.5-5.1,3.6-8c-1.8-7,0.6-12.6,7.1-16.9c2.7,6.8,4.4,6.8,5.3,0
	c1.8,0,3.6,0,5.3,0c0,1.8,0,3.6,0,5.3c2.1-0.4,3.9,0.2,5.3,1.8C682.7,713.6,684.4,719.6,687.2,725z"/>
<path class="st188" d="M426.9,764.2c0,4.2,0,8.3,0,12.5c-10.7,0-21.4,0-32.1,0c-0.8-16.3,0.1-32.4,2.7-48.1c0.4,2.6,1.3,4.9,2.7,7.1
	c1-0.4,1.9-1,2.7-1.8c0.2,4.5,1.4,8.7,3.6,12.5c0.9-10,4.5-11.2,10.7-3.6c0.6-1.2,1.2-2.4,1.8-3.6c2.5,6.8,4,13.9,4.5,21.4
	c-2.1-0.4-3.9,0.2-5.3,1.8C420.8,764.1,423.7,764.7,426.9,764.2z"/>
<path class="st189" d="M610.5,732.1c0,2.4,0,4.8,0,7.1c-2.7,1-5.4,2.2-8,3.6c0.3,6.7-1.7,12.3-6.2,16.9c-3.6-0.3-7.1-1.2-10.7-2.7
	c-0.2-1.8-0.7-3.9-1.8-6.2c-3.1-1.2-6.1-0.9-8.9,0.9c-1.6-4-4.6-5.8-8.9-5.3c0.3,2.4-0.3,4.4-1.8,6.2c-7.7,1-15.4,1.9-23.2,2.7
	c-3.3,0-6.3-0.6-8.9-1.8c10.8-0.4,21.5-1.5,32.1-3.6c0-1.8,0-3.6,0-5.3c5.9-2.9,10.6-7.1,14.3-12.5c1.7,2.3,4.1,3.5,7.1,3.6
	c-0.3-2.4,0.3-4.4,1.8-6.2c3.7-2.9,7.9-5,12.5-6.2c1.5-3.6,3-7.1,4.5-10.7c4.9,4.6,5.8,9.9,2.7,16
	C607.4,730.7,608.6,731.9,610.5,732.1z"/>
<path class="st190" d="M107.8,732.1c-2,8.5-7.4,13.3-16,14.3C98.3,742.9,103.6,738.2,107.8,732.1z"/>
<path class="st191" d="M323.5,776.7c-9.5,0-19,0-28.5,0c-3.6-14.6-4.4-29.4-2.7-44.6c4.4-5.3,7.7-11.2,9.8-17.8
	c1.7,8,4.1,8.6,7.1,1.8c1.5-1.9,3.3-2.2,5.3-0.9c0.6,2.9,0.6,6.2,0,9.8c2.4,0,4.8,0,7.1,0C322.7,742.2,323.3,759.5,323.5,776.7z"/>
<path class="st192" d="M391.3,660.8c1.8,11.5,2.4,23.4,1.8,35.7c-0.6,27.1,0,53.8,1.8,80.2c0,0.6,0,1.2,0,1.8c-1.2,0-2.4,0-3.6,0
	C391.3,739.3,391.3,700.1,391.3,660.8z"/>
<path class="st193" d="M1074,739.3c0,2.4,0,4.8,0,7.1c0,1.2,0,2.4,0,3.6c-4.1,9.5-10.6,16.6-19.6,21.4c-2,0.1-3.8,0.7-5.3,1.8
	c0.4-3,1.6-5.7,3.6-8c-1.4-0.5-2.6-1.4-3.6-2.7c5.1-1.8,7.4-5.4,7.1-10.7c-5.4,1.9-10.7,1.9-16,0c-17.7,11.1-35.9,11.7-54.4,1.8
	c-2.3,0.8-4.4,2-6.2,3.6c-2.2-5.8-5.8-10.5-10.7-14.3c-1.2,3.6-2.4,7.1-3.6,10.7c-3.7-2-6.4-0.9-8,3.6c-0.8,1.9-0.5,3.7,0.9,5.3
	c-1.2,0-2.4,0-3.6,0c-2.3-4.4-4.1-9.2-5.3-14.3c-5.7-3.8-8.1-9.1-7.1-16c7.2,0.2,14.3-0.4,21.4-1.8c-0.4,2.1,0.2,3.9,1.8,5.3
	c2.2-3,4.6-3.6,7.1-1.8c1.2,0.6,2.4,1.2,3.6,1.8c3.5,4.7,7.7,8.9,12.5,12.5c0,0.6,0,1.2,0,1.8c2,1.9,4.3,3.4,7.1,4.5
	c10.7,1.2,21.4,1.2,32.1,0c12.7-7.3,18.1-18.3,16-33c3.5-3.4,6.2-7.6,8-12.5c1.3-1.7,2.8-2,4.5-0.9c4.4,4.7,9.2,9.2,14.3,13.4
	C1072.8,727.2,1074,733.1,1074,739.3z"/>
<path class="st194" d="M469.7,660.8c0.6,0,1.2,0,1.8,0c0,5.3,0,10.7,0,16c0,6.5,0,13.1,0,19.6c0,11.9,0,23.8,0,35.7
	c-0.6,14.6,0,28.9,1.8,42.8c9.2,2.3,18.7,2.3,28.5,0c1-3.8,2.2-7.4,3.6-10.7c0.2,4.9-0.4,9.6-1.8,14.3c-11.3,0-22.6,0-33.9,0
	C469.7,739.3,469.7,700.1,469.7,660.8z"/>
<path class="st195" d="M1029.5,714.3c4,0.2,7.5,1.4,10.7,3.6c2.4,0,3.6,1.2,3.6,3.6c2,14.7-3.3,25.6-16,33
	c-10.7,1.2-21.4,1.2-32.1,0c-2.8-1.1-5.2-2.6-7.1-4.5c11.1,3.3,22.4,4.2,33.9,2.7c3.2-1.3,6.2-2.8,8.9-4.5c2.3-1.4,4.4-3.2,6.2-5.3
	C1043.1,730.6,1040.5,721.1,1029.5,714.3z"/>
<path class="st196" d="M143.5,753.5c0.6,0,1.2,0,1.8,0c0.7,7.8,1.8,15.6,3.6,23.2c-11.9,0-23.8,0-35.7,0c0-0.6,0-1.2,0-1.8
	c1.2-13.1-3.6-15.8-14.3-8c-1.3,1.2-1.9,2.7-1.8,4.5c-10.6,4-21.6,7-33,8.9c-9.6-2.7-19.4-4.5-29.4-5.3c-3.6-8.4-9.5-14.3-17.8-17.8
	c-0.2-7.5,1.3-14.6,4.5-21.4c1.2-2.4,2.4-2.4,3.6,0c0.9,2.9,1.2,5.9,0.9,8.9c2.4,0,4.8,0,7.1,0c0,1.8,0,3.6,0,5.3
	c3.6-0.3,6.5,0.9,8.9,3.6c1.5-1.6,3.3-2.8,5.3-3.6c6.1,1,11.4,3.4,16,7.1c13.5-3.2,27.2-6.1,41-8.9c-0.3-2.9,0.6-5.2,2.7-7.1
	c2.2,3.4,4.9,4,8,1.8c2.2-5.8,3.9-11.8,5.3-17.8c1.2,3.6,2.4,7.1,3.6,10.7c2.9-2.5,6.2-4.3,9.8-5.3
	C136.2,740.5,139.5,748.2,143.5,753.5z"/>
<path class="st197" d="M505.4,730.4c-0.5,2.6,0.1,5,1.8,7.1c5.7,3,9.9,7.5,12.5,13.4c4.5,0.3,8.7,1.2,12.5,2.7
	c2.6,1.2,5.6,1.8,8.9,1.8c7.7-0.7,15.5-1.6,23.2-2.7c1.5-1.8,2.1-3.9,1.8-6.2c4.3-0.5,7.3,1.3,8.9,5.3c2.8-1.8,5.8-2.1,8.9-0.9
	c1,2.4,1.6,4.5,1.8,6.2c3.2,2.1,5,5.1,5.3,8.9c-7.2-1.2-10.8,1.8-10.7,8.9c-11.4,0.8-22.7,2.6-33.9,5.3c-5.9-1.7-11.8-3.2-17.8-4.5
	c-3.5-4.8-8.2-7.5-14.3-8c-2.9-2-5.6-4.4-8-7.1c-0.8,1.1-1.1,2.2-0.9,3.6c-1.4,3.3-2.6,6.9-3.6,10.7c-9.8,2.3-19.3,2.3-28.5,0
	c-0.4-15.3,0.2-30.8,1.8-46.3c9.8-1,19,0.2,27.6,3.6C503.4,731.1,504.3,730.6,505.4,730.4z"/>
<path class="st198" d="M505.4,730.4c0.6,0,1.2,0,1.8,0c14.7,20.6,33.7,25.4,57,14.3c0,1.8,0,3.6,0,5.3c-10.6,2-21.3,3.2-32.1,3.6
	c-3.8-1.5-8-2.3-12.5-2.7c-2.6-5.9-6.8-10.3-12.5-13.4C505.5,735.4,504.9,733,505.4,730.4z"/>
<path class="st199" d="M803.1,742.8c5.4,5.4,11.9,8.3,19.6,8.9c0.7,1.3,1.9,2.2,3.6,2.7c7.1,1.2,14.3,1.2,21.4,0
	c1.2-1.8,2.4-3.6,3.6-5.3c7.1,0.3,10.6-3,10.7-9.8c1.8,0,3.6,0,5.3,0c0.3,3.8,2.1,6.7,5.3,8.9c4.4-4.6,8.2-4,11.6,1.8
	c4.2,4,3.3,6.1-2.7,6.2c1.5,1.8,2.1,3.9,1.8,6.2c-2.4,0-4.8,0-7.1,0c0-1.8,0-3.6,0-5.3c-4.8-0.3-9.5,0-14.3,0.9
	c3.2,2.1,6.7,3.3,10.7,3.6c1.5,1.8,2.1,3.9,1.8,6.2c-4.7,1.7-9.4,3.4-14.3,5.3c-3.6-4.4-8.4-6.2-14.3-5.3c-0.3,2.4,0.3,4.4,1.8,6.2
	c-13.1,1.2-26.1,1.2-39.2,0c-8.3-5.1-17.2-9.5-26.7-13.4c-3.9-5.3-6.2-11.2-7.1-17.8c-2,1.9-3.8,1.9-5.3,0c5.1-5.6,4.8-9.2-0.9-10.7
	c-2.2-6.1-0.1-9.1,6.2-8.9c1,10.1,2.2,10.7,3.6,1.8c2.1-0.4,3.9,0.2,5.3,1.8c-2,2.5-2,4.9,0,7.1c2.3-1.7,4.6-2,7.1-0.9
	C792.6,739.9,796.8,743.2,803.1,742.8z"/>
<path class="st200" d="M803.1,739.3c9.8,9.8,21.7,13.3,35.7,10.7c-5,1.7-10.3,2.3-16,1.8c-7.7-0.6-14.2-3.5-19.6-8.9
	C803.1,741.6,803.1,740.5,803.1,739.3z"/>
<path class="st201" d="M1049.1,773.1c-25.1,6.1-50,5.8-74.9-0.9c-4.7-4.4-10.1-7.7-16-9.8c-1.4-1.6-1.7-3.4-0.9-5.3
	c1.6-4.4,4.3-5.6,8-3.6c1.2-3.6,2.4-7.1,3.6-10.7c4.9,3.7,8.5,8.5,10.7,14.3c1.9-1.6,3.9-2.8,6.2-3.6c18.5,9.9,36.6,9.3,54.4-1.8
	c5.3,1.9,10.6,1.9,16,0c0.3,5.3-2.1,8.9-7.1,10.7c0.9,1.2,2.1,2.1,3.6,2.7C1050.7,767.5,1049.5,770.2,1049.1,773.1z"/>
<path class="st202" d="M610.5,739.3c-2.5,9.3-6.9,17.7-13.4,25c-5,4.7-10.6,8.3-16.9,10.7c-0.1-7.1,3.5-10.1,10.7-8.9
	c-0.4-3.9-2.2-6.8-5.3-8.9c3.6,1.5,7.1,2.4,10.7,2.7c4.5-4.6,6.6-10.2,6.2-16.9C605.1,741.5,607.8,740.3,610.5,739.3z"/>
<path class="st203" d="M200.5,725c7.9-1.6,14.2,0.8,18.7,7.1c0,14.4,0.3,28.7,0.9,42.8c-10.1,0-20.2,0-30.3,0
	c1-15.4,1.6-30.9,1.8-46.3C195.7,729.3,198.7,728.1,200.5,725z"/>
<path class="st204" d="M1327.2,753.5c0.6,0,1.2,0,1.8,0c-0.2,7.2,0.4,14.3,1.8,21.4c-10.1,0.3-20.2,0-30.3-0.9
	c-2.1-1.2-3.9-2.7-5.3-4.5c0-2.4,0-4.8,0-7.1c-7,1-12.9,4.3-17.8,9.8c-6.1,1.9-11.5,4.6-16,8c-0.6,0-1.2,0-1.8,0
	c-8.3,0.3-16.7,0-25-0.9c-5.1-2.5-10.4-4-16-4.5c-2.7-3.8-4.4-8-5.3-12.5c-2.5,0.1-4.9-0.5-7.1-1.8c-2.2-1.4-2.2-2.9,0-4.5
	c-1.3-1.9-3.1-2.7-5.3-2.7c0-1.8,0-3.6,0-5.3c1.8,0,3.6,0,5.3,0c-0.4,2.1,0.2,3.9,1.8,5.3c6.6-1.4,7.8-4.1,3.6-8
	c0.8-3.4,2-6.7,3.6-9.8c3.8,5.9,8,11.6,12.5,16.9c-1.2,0.6-2.4,1.2-3.6,1.8c5.1,1.2,9.8,0.3,14.3-2.7c14.4,5.1,28.1,3.9,41-3.6
	c4.2,2.2,8.3,2.2,12.5,0c1.5-5.5,4.5-10,8.9-13.4c3.4-0.6,5.7,0.9,7.1,4.5c3.4-2.2,5.2-4.6,5.3-7.1c2.1,3,4.2,5.9,6.2,8.9
	c0.6-1.2,1.2-2.4,1.8-3.6C1323.8,742.7,1325.9,748,1327.2,753.5z"/>
<path class="st205" d="M1150.7,705.4c0.6,0,1.2,0,1.8,0c0,24.4,0,48.7,0,73.1c-12.5,0-25,0-37.4,0c0-22.6,0-45.2,0-67.7
	c0.6,0,1.2,0,1.8,0c0,3,0,5.9,0,8.9c-0.6,18.7,0,37.2,1.8,55.3c9.9,2.3,20,2.3,30.3,0c1.8-11.2,2.4-22.5,1.8-33.9
	c0-10.7,0-21.4,0-32.1C1150.7,707.8,1150.7,706.6,1150.7,705.4z"/>
<path class="st206" d="M1118.6,767.8c0-3.6,0-7.1,0-10.7c1.3-5.1,2.5-10.4,3.6-16c2.1-1.7,4.5-2.2,7.1-1.8c1.2-7.1,2.4-7.1,3.6,0
	c2.9,0,5.3,1.2,7.1,3.6c1.2-1.8,2.4-3.6,3.6-5.3c4.9,11.5,6.1,23.4,3.6,35.7c-8.2,2-16.5,2.3-25,0.9
	C1121.1,771.7,1119.9,769.6,1118.6,767.8z"/>
<path class="st207" d="M113.2,774.9c-0.9-4-2.7-7.5-5.3-10.7c-3.1,3.2-6.7,5.5-10.7,7.1c-0.2-1.8,0.4-3.3,1.8-4.5
	C109.6,759.2,114.4,761.8,113.2,774.9z"/>
<path class="st208" d="M954.6,762.4c1.2,0,2.4,0,3.6,0c6,2.1,11.3,5.4,16,9.8c24.8,6.7,49.8,7,74.9,0.9
	c-22.3,9.6-45.5,11.4-69.5,5.3C970.4,774.7,962,769.3,954.6,762.4z"/>
<path class="st209" d="M1295.1,769.6c-1.2-1.6-2.4-3.4-3.6-5.3c-8.4,8.6-18.5,14-30.3,16c4.6-3.5,9.9-6.1,16-8
	c4.9-5.5,10.8-8.8,17.8-9.8C1295.1,764.8,1295.1,767.2,1295.1,769.6z"/>
<path class="st210" d="M1329,753.5c0.6,0,1.2,0,1.8,0c0.1,5.2,1.3,10,3.6,14.3c1.2,3.4,1.7,7,1.8,10.7c-13.1,0-26.2,0-39.2,0
	c-1-2.9-1.6-5.9-1.8-8.9c1.4,1.7,3.2,3.2,5.3,4.5c10.1,0.9,20.2,1.2,30.3,0.9C1329.4,767.9,1328.8,760.7,1329,753.5z"/>
<path class="st211" d="M145.3,742.8c0.6,0,1.2,0,1.8,0c-0.4,12.3,1.4,24.1,5.3,35.7c-13.4,0.6-26.5,0-39.2-1.8c11.9,0,23.8,0,35.7,0
	c-1.7-7.6-2.9-15.3-3.6-23.2C145.3,750,145.3,746.4,145.3,742.8z"/>
<path class="st212" d="M325.3,748.2c1.7,5.6,2.3,11.5,1.8,17.8c0,4.2,0,8.3,0,12.5c-12.5,0-25,0-37.4,0c0-1.8,0-3.6,0-5.3
	c1.3,1.9,3.1,3.1,5.3,3.6c9.5,0,19,0,28.5,0C325.3,767.5,325.9,758,325.3,748.2z"/>
<path class="st213" d="M426.9,725c1.8,17.5,2.4,35.3,1.8,53.5c-11.3,0-22.6,0-33.9,0c0-0.6,0-1.2,0-1.8c10.7,0,21.4,0,32.1,0
	c0-4.2,0-8.3,0-12.5C426.9,751.2,426.9,738.1,426.9,725z"/>
<path class="st214" d="M514.3,767.8c6,0.5,10.8,3.2,14.3,8c6,1.3,11.9,2.8,17.8,4.5c11.2-2.8,22.5-4.5,33.9-5.3
	c-18.7,9.1-37.7,9.4-57,0.9C519.4,773.9,516.5,771.3,514.3,767.8z"/>
<path class="st215" d="M687.2,696.5c0.6,0,1.2,0,1.8,0c0,27.3,0,54.7,0,82c-11.9,0-23.8,0-35.7,0c0-17.8,0-35.7,0-53.5
	c0.6,0,1.2,0,1.8,0c0,10.7,0,21.4,0,32.1c0,5.9,0,11.9,0,17.8c10.4,1.8,21.1,2.4,32.1,1.8c0-17.2,0-34.5,0-51.7
	C687.2,715.5,687.2,706,687.2,696.5z"/>
<path class="st216" d="M655.1,774.9c0-5.9,0-11.9,0-17.8c1.2-1.6,2.4-3.4,3.6-5.3c1.2,0.6,2.4,1.2,3.6,1.8c1.9-6.6,4-13.1,6.2-19.6
	c1.7,5.7,4.1,6.3,7.1,1.8c4.2,5.3,5,10.9,2.7,16.9c2.8,0.6,4.9,2.1,6.2,4.5c0.9,5.9,1.2,11.9,0.9,17.8
	C675,774.2,664.9,774.2,655.1,774.9z"/>
<path class="st207" d="M97.1,771.4c-6.4,5.2-13.5,8.7-21.4,10.7c-8.9,0.3-17.8,0-26.7-0.9c-5.3-1.3-10.1-3.3-14.3-6.2
	c10,0.9,19.8,2.7,29.4,5.3C75.6,778.4,86.5,775.4,97.1,771.4z"/>
<path class="st217" d="M799.5,774.9c21.4,4.5,42.8,4.5,64.2,0c-5.4,3.1-11.3,5.2-17.8,6.2c-9.5,0.9-19,1.2-28.5,0.9
	c-0.6,0-1.2,0-1.8,0C810.2,779.7,804.9,777.3,799.5,774.9z"/>
<path class="st218" d="M1218.4,774.9c5.6,0.4,11,1.9,16,4.5c8.3,0.9,16.6,1.2,25,0.9c-10.4,2.2-21.1,2.2-32.1,0
	C1224.2,778.8,1221.2,777,1218.4,774.9z"/>
</svg>
